# Blender 4.5.3 LTS
# www.blender.org
mtllib house_2ndFloor_floor.mtl
g Cube.031_Mesh
v -20.000000 8.200000 -26.000000
v -20.000000 7.800000 -26.000000
v -20.000000 8.200000 -8.000000
v -20.000000 7.800000 -8.000000
v -36.000000 8.200000 -26.000000
v -36.000000 7.800000 -26.000000
v -36.000000 8.200000 -8.000000
v -36.000000 7.800000 -8.000000
v -24.200005 8.200000 -22.999998
v -24.200005 8.200000 -13.999999
v -20.200005 8.200000 -13.999999
v -20.200005 8.200000 -22.999998
v -24.200005 7.800000 -22.999998
v -24.200005 7.800000 -13.999999
v -20.200005 7.800000 -13.999999
v -20.200005 7.800000 -22.999998
vn -0.0000 1.0000 -0.0000
vn -0.0000 -0.0000 1.0000
vn -1.0000 -0.0000 -0.0000
vn -0.0000 -1.0000 -0.0000
vn 1.0000 -0.0000 -0.0000
vn -0.0000 -0.0000 -1.0000
vt 0.628125 0.666667
vt 0.625000 0.500000
vt 0.628125 0.541667
vt 0.875000 0.500000
vt 0.690625 0.666667
vt 0.690625 0.541667
vt 0.625000 0.750000
vt 0.375000 1.000000
vt 0.375000 0.750000
vt 0.625000 0.000000
vt 0.375000 0.250000
vt 0.375000 0.000000
vt 0.125000 0.500000
vt 0.309375 0.541667
vt 0.309375 0.666667
vt 0.375000 0.500000
vt 0.371875 0.666667
vt 0.371875 0.541667
vt 0.625000 0.250000
vt 0.487771 0.750000
vt 0.471104 1.000000
vt 0.487771 1.000000
vt 0.487771 0.250000
vt 0.471104 0.000000
vt 0.471104 0.250000
vt 0.487771 0.500000
vt 0.471104 0.750000
vt 0.471104 0.500000
vt 0.875000 0.750000
vt 0.625000 1.000000
vt 0.125000 0.750000
vt 0.487771 0.000000
s 0
usemtl Material.061
f 11/1/1 1/2/1 12/3/1
f 5/4/1 10/5/1 9/6/1
f 3/7/2 8/8/2 4/9/2
f 7/10/3 6/11/3 8/12/3
f 6/13/4 13/14/4 14/15/4
f 2/16/4 15/17/4 16/18/4
f 1/2/5 4/9/5 2/16/5
f 5/19/6 2/16/6 6/11/6
f 11/20/6 14/21/6 10/22/6
f 9/23/5 14/24/5 13/25/5
f 12/26/3 15/27/3 11/20/3
f 12/26/2 13/25/2 16/28/2
f 11/1/1 3/7/1 1/2/1
f 9/6/1 12/3/1 1/2/1
f 5/4/1 7/29/1 3/7/1
f 3/7/1 11/1/1 10/5/1
f 9/6/1 1/2/1 5/4/1
f 5/4/1 3/7/1 10/5/1
f 3/7/2 7/30/2 8/8/2
f 7/10/3 5/19/3 6/11/3
f 14/15/4 15/17/4 4/9/4
f 4/9/4 8/31/4 6/13/4
f 6/13/4 2/16/4 16/18/4
f 6/13/4 16/18/4 13/14/4
f 14/15/4 4/9/4 6/13/4
f 2/16/4 4/9/4 15/17/4
f 1/2/5 3/7/5 4/9/5
f 5/19/6 1/2/6 2/16/6
f 11/20/6 15/27/6 14/21/6
f 9/23/5 10/32/5 14/24/5
f 12/26/3 16/28/3 15/27/3
f 12/26/2 9/23/2 13/25/2
g Cube.033_Mesh
v 4.000000 8.200000 -26.000000
v 4.000000 7.800000 -26.000000
v 4.000000 8.200000 -8.000000
v 4.000000 7.800000 -8.000000
v -4.000000 8.200000 -26.000000
v -4.000000 7.800000 -26.000000
v -4.000000 8.200000 -8.000000
v -4.000000 7.800000 -8.000000
vn -0.0000 1.0000 -0.0000
vn -0.0000 -0.0000 1.0000
vn -1.0000 -0.0000 -0.0000
vn -0.0000 -1.0000 -0.0000
vn 1.0000 -0.0000 -0.0000
vn -0.0000 -0.0000 -1.0000
vt 0.875000 0.500000
vt 0.625000 0.750000
vt 0.625000 0.500000
vt 0.375000 1.000000
vt 0.375000 0.750000
vt 0.625000 0.000000
vt 0.375000 0.250000
vt 0.375000 0.000000
vt 0.375000 0.500000
vt 0.125000 0.750000
vt 0.125000 0.500000
vt 0.625000 0.250000
vt 0.875000 0.750000
vt 0.625000 1.000000
s 0
usemtl Material.050
f 21/33/7 19/34/7 17/35/7
f 19/34/8 24/36/8 20/37/8
f 23/38/9 22/39/9 24/40/9
f 18/41/10 24/42/10 22/43/10
f 17/35/11 20/37/11 18/41/11
f 21/44/12 18/41/12 22/39/12
f 21/33/7 23/45/7 19/34/7
f 19/34/8 23/46/8 24/36/8
f 23/38/9 21/44/9 22/39/9
f 18/41/10 20/37/10 24/42/10
f 17/35/11 19/34/11 20/37/11
f 21/44/12 17/35/12 18/41/12
g Cube.034_Mesh
v -4.000000 8.200000 -26.000000
v -4.000000 7.800000 -26.000000
v -4.000000 8.200000 -14.000000
v -4.000000 7.800000 -14.000000
v -20.000000 8.200000 -26.000000
v -20.000000 7.800000 -26.000000
v -20.000000 8.200000 -14.000000
v -20.000000 7.800000 -14.000000
vn -0.0000 1.0000 -0.0000
vn -0.0000 -0.0000 1.0000
vn -1.0000 -0.0000 -0.0000
vn -0.0000 -1.0000 -0.0000
vn 1.0000 -0.0000 -0.0000
vn -0.0000 -0.0000 -1.0000
vt 0.875000 0.500000
vt 0.625000 0.750000
vt 0.625000 0.500000
vt 0.375000 1.000000
vt 0.375000 0.750000
vt 0.625000 0.000000
vt 0.375000 0.250000
vt 0.375000 0.000000
vt 0.375000 0.500000
vt 0.125000 0.750000
vt 0.125000 0.500000
vt 0.625000 0.250000
vt 0.875000 0.750000
vt 0.625000 1.000000
s 0
usemtl Material.053
f 29/47/13 27/48/13 25/49/13
f 27/48/14 32/50/14 28/51/14
f 31/52/15 30/53/15 32/54/15
f 26/55/16 32/56/16 30/57/16
f 25/49/17 28/51/17 26/55/17
f 29/58/18 26/55/18 30/53/18
f 29/47/13 31/59/13 27/48/13
f 27/48/14 31/60/14 32/50/14
f 31/52/15 29/58/15 30/53/15
f 26/55/16 28/51/16 32/56/16
f 25/49/17 27/48/17 28/51/17
f 29/58/18 25/49/18 26/55/18
g Cube.046_Mesh
v -20.000000 8.200000 -8.000000
v -20.000000 7.800000 -8.000000
v -20.000000 8.200000 8.000000
v -20.000000 7.800000 8.000000
v -36.000000 8.200000 -8.000000
v -36.000000 7.800000 -8.000000
v -36.000000 8.200000 8.000000
v -36.000000 7.800000 8.000000
vn -0.0000 1.0000 -0.0000
vn -0.0000 -0.0000 1.0000
vn -1.0000 -0.0000 -0.0000
vn -0.0000 -1.0000 -0.0000
vn 1.0000 -0.0000 -0.0000
vn -0.0000 -0.0000 -1.0000
vt 0.875000 0.500000
vt 0.625000 0.750000
vt 0.625000 0.500000
vt 0.375000 1.000000
vt 0.375000 0.750000
vt 0.625000 0.000000
vt 0.375000 0.250000
vt 0.375000 0.000000
vt 0.375000 0.500000
vt 0.125000 0.750000
vt 0.125000 0.500000
vt 0.625000 0.250000
vt 0.875000 0.750000
vt 0.625000 1.000000
s 0
usemtl Material.044
f 37/61/19 35/62/19 33/63/19
f 35/62/20 40/64/20 36/65/20
f 39/66/21 38/67/21 40/68/21
f 34/69/22 40/70/22 38/71/22
f 33/63/23 36/65/23 34/69/23
f 37/72/24 34/69/24 38/67/24
f 37/61/19 39/73/19 35/62/19
f 35/62/20 39/74/20 40/64/20
f 39/66/21 37/72/21 38/67/21
f 34/69/22 36/65/22 40/70/22
f 33/63/23 35/62/23 36/65/23
f 37/72/24 33/63/24 34/69/24
g Cube.047_Mesh
v -4.000000 8.200000 -14.000000
v -4.000000 7.800000 -14.000000
v -4.000000 8.200000 -8.000000
v -4.000000 7.800000 -8.000000
v -20.000000 8.200000 -14.000000
v -20.000000 7.800000 -14.000000
v -20.000000 8.200000 -8.000000
v -20.000000 7.800000 -8.000000
vn -0.0000 1.0000 -0.0000
vn -0.0000 -0.0000 1.0000
vn -1.0000 -0.0000 -0.0000
vn -0.0000 -1.0000 -0.0000
vn 1.0000 -0.0000 -0.0000
vn -0.0000 -0.0000 -1.0000
vt 0.875000 0.500000
vt 0.625000 0.750000
vt 0.625000 0.500000
vt 0.375000 1.000000
vt 0.375000 0.750000
vt 0.625000 0.000000
vt 0.375000 0.250000
vt 0.375000 0.000000
vt 0.375000 0.500000
vt 0.125000 0.750000
vt 0.125000 0.500000
vt 0.625000 0.250000
vt 0.875000 0.750000
vt 0.625000 1.000000
s 0
usemtl Material.054
f 45/75/25 43/76/25 41/77/25
f 43/76/26 48/78/26 44/79/26
f 47/80/27 46/81/27 48/82/27
f 42/83/28 48/84/28 46/85/28
f 41/77/29 44/79/29 42/83/29
f 45/86/30 42/83/30 46/81/30
f 45/75/25 47/87/25 43/76/25
f 43/76/26 47/88/26 48/78/26
f 47/80/27 45/86/27 46/81/27
f 42/83/28 44/79/28 48/84/28
f 41/77/29 43/76/29 44/79/29
f 45/86/30 41/77/30 42/83/30
g Cube.076_Mesh
v -4.000000 8.200000 -8.000000
v -4.000000 7.800000 -8.000000
v -4.000000 8.200000 8.000000
v -4.000000 7.800000 8.000000
v -20.000000 8.200000 -8.000000
v -20.000000 7.800000 -8.000000
v -20.000000 8.200000 8.000000
v -20.000000 7.800000 8.000000
vn -0.0000 1.0000 -0.0000
vn -0.0000 -0.0000 1.0000
vn -1.0000 -0.0000 -0.0000
vn -0.0000 -1.0000 -0.0000
vn 1.0000 -0.0000 -0.0000
vn -0.0000 -0.0000 -1.0000
vt 0.875000 0.500000
vt 0.625000 0.750000
vt 0.625000 0.500000
vt 0.375000 1.000000
vt 0.375000 0.750000
vt 0.625000 0.000000
vt 0.375000 0.250000
vt 0.375000 0.000000
vt 0.375000 0.500000
vt 0.125000 0.750000
vt 0.125000 0.500000
vt 0.625000 0.250000
vt 0.875000 0.750000
vt 0.625000 1.000000
s 0
usemtl Material.011
f 53/89/31 51/90/31 49/91/31
f 51/90/32 56/92/32 52/93/32
f 55/94/33 54/95/33 56/96/33
f 50/97/34 56/98/34 54/99/34
f 49/91/35 52/93/35 50/97/35
f 53/100/36 50/97/36 54/95/36
f 53/89/31 55/101/31 51/90/31
f 51/90/32 55/102/32 56/92/32
f 55/94/33 53/100/33 54/95/33
f 50/97/34 52/93/34 56/98/34
f 49/91/35 51/90/35 52/93/35
f 53/100/36 49/91/36 50/97/36
g Cube.065_Mesh
v -20.200001 8.000000 -23.000000
v -20.200001 2.000000 -15.000000
v -24.200001 8.000000 -23.000000
v -24.200001 2.000000 -15.000000
v -20.200001 8.000000 -22.434166
v -20.200001 2.424376 -15.000000
v -20.200001 7.651524 -22.434166
v -20.200001 7.651524 -21.969530
v -20.200001 7.303047 -21.969530
v -20.200001 7.303047 -21.504894
v -20.200001 6.954570 -21.504894
v -20.200001 6.954570 -21.040258
v -20.200001 6.606094 -21.040258
v -20.200001 6.606094 -20.575624
v -20.200001 6.257618 -20.575624
v -20.200001 6.257618 -20.110989
v -20.200001 5.909141 -20.110989
v -20.200001 5.909141 -19.646353
v -20.200001 5.560665 -19.646353
v -20.200001 5.560665 -19.181717
v -20.200001 5.212188 -19.181717
v -20.200001 5.212188 -18.717083
v -20.200001 4.863711 -18.717083
v -20.200001 4.863711 -18.252447
v -20.200001 4.515235 -18.252447
v -20.200001 4.515235 -17.787811
v -20.200001 4.166759 -17.787811
v -20.200001 4.166759 -17.323177
v -20.200001 3.818282 -17.323177
v -20.200001 3.818282 -16.858541
v -20.200001 3.469806 -16.858541
v -20.200001 3.469806 -16.393906
v -20.200001 3.121329 -16.393906
v -20.200001 3.121329 -15.929271
v -20.200001 2.772853 -15.929271
v -20.200001 2.772853 -15.464636
v -20.200001 2.424376 -15.464636
v -24.200001 2.424376 -15.000000
v -24.200001 8.000000 -22.434166
v -24.200001 2.424376 -15.464636
v -24.200001 2.772853 -15.464636
v -24.200001 2.772853 -15.929271
v -24.200001 3.121329 -15.929271
v -24.200001 3.121329 -16.393906
v -24.200001 3.469806 -16.393906
v -24.200001 3.469806 -16.858541
v -24.200001 3.818282 -16.858541
v -24.200001 3.818282 -17.323177
v -24.200001 4.166759 -17.323177
v -24.200001 4.166759 -17.787811
v -24.200001 4.515235 -17.787811
v -24.200001 4.515235 -18.252447
v -24.200001 4.863711 -18.252447
v -24.200001 4.863711 -18.717083
v -24.200001 5.212188 -18.717083
v -24.200001 5.212188 -19.181717
v -24.200001 5.560665 -19.181717
v -24.200001 5.560665 -19.646353
v -24.200001 5.909141 -19.646353
v -24.200001 5.909141 -20.110989
v -24.200001 6.257618 -20.110989
v -24.200001 6.257618 -20.575624
v -24.200001 6.606094 -20.575624
v -24.200001 6.606094 -21.040258
v -24.200001 6.954570 -21.040258
v -24.200001 6.954570 -21.504894
v -24.200001 7.303047 -21.504894
v -24.200001 7.303047 -21.969530
v -24.200001 7.651524 -21.969530
v -24.200001 7.651524 -22.434166
v -20.200001 2.000000 -16.666668
v -24.200001 2.000000 -16.666668
v -24.200001 6.750000 -23.000000
v -20.200001 6.750000 -23.000000
vn -0.0000 -1.0000 -0.0000
vn -0.0000 -0.0000 -1.0000
vn -0.0000 -0.0000 1.0000
vn -0.0000 1.0000 -0.0000
vn 1.0000 -0.0000 -0.0000
vn -1.0000 -0.0000 -0.0000
vn -0.0000 -0.8000 -0.6000
vt 0.125000 0.750000
vt 0.375000 0.697917
vt 0.375000 0.750000
vt 0.625000 0.250000
vt 0.572917 0.500000
vt 0.572917 0.250000
vt 0.875000 0.517682
vt 0.613046 0.517682
vt 0.625000 0.517682
vt 0.613046 0.532202
vt 0.875000 0.532202
vt 0.601091 0.532202
vt 0.601091 0.546722
vt 0.875000 0.546722
vt 0.589137 0.546722
vt 0.875000 0.546722
vt 0.589137 0.561242
vt 0.875000 0.561242
vt 0.577183 0.561242
vt 0.875000 0.561242
vt 0.577183 0.575762
vt 0.875000 0.575762
vt 0.565229 0.575762
vt 0.565229 0.590282
vt 0.875000 0.590282
vt 0.553274 0.590282
vt 0.875000 0.590282
vt 0.553274 0.604802
vt 0.875000 0.604801
vt 0.541320 0.604801
vt 0.875000 0.604801
vt 0.541320 0.619321
vt 0.875000 0.619321
vt 0.529366 0.619321
vt 0.529366 0.654366
vt 0.625000 1.000000
vt 0.494321 0.654366
vt 0.494321 1.000000
vt 0.494321 0.666320
vt 0.479801 0.666320
vt 0.479801 1.000000
vt 0.479802 0.678274
vt 0.479801 1.000000
vt 0.465282 0.678274
vt 0.465282 1.000000
vt 0.465282 0.690229
vt 0.465282 1.000000
vt 0.450762 0.690229
vt 0.450762 1.000000
vt 0.450762 0.702183
vt 0.436242 0.702183
vt 0.436242 1.000000
vt 0.436242 0.714137
vt 0.436242 1.000000
vt 0.421722 0.714137
vt 0.421722 1.000000
vt 0.421722 0.726091
vt 0.421722 1.000000
vt 0.407202 0.726091
vt 0.407202 1.000000
vt 0.407202 0.738046
vt 0.392682 0.738046
vt 0.392682 1.000000
vt 0.392682 0.750000
vt 0.375000 1.000000
vt 0.875000 0.500000
vt 0.625000 0.500000
vt 0.436242 0.058079
vt 0.508841 0.130679
vt 0.523361 0.145199
vt 0.593750 1.000000
vt 0.395833 0.744558
vt 0.395833 1.000000
vt 0.125000 0.697917
vt 0.875000 0.750000
vt 0.392682 1.000000
vt 0.625000 0.232318
vt 0.375000 0.052083
vt 0.375000 0.000000
vt 0.392682 0.000000
vt 0.392682 0.014520
vt 0.407202 0.014520
vt 0.407202 0.029040
vt 0.421722 0.029040
vt 0.421722 0.043560
vt 0.436242 0.043560
vt 0.450762 0.058079
vt 0.450762 0.072599
vt 0.465282 0.072599
vt 0.465282 0.087119
vt 0.479802 0.087119
vt 0.479801 0.101639
vt 0.494321 0.101639
vt 0.494321 0.116159
vt 0.508841 0.116159
vt 0.523361 0.130679
vt 0.537881 0.145199
vt 0.537881 0.159718
vt 0.552401 0.159718
vt 0.552401 0.174238
vt 0.566921 0.174238
vt 0.566921 0.188758
vt 0.581441 0.188758
vt 0.581440 0.203278
vt 0.595960 0.203278
vt 0.595960 0.217798
vt 0.610480 0.217798
vt 0.610480 0.232318
vt 0.593750 0.692862
s 0
usemtl Material.005
f 60/103/37 127/104/37 58/105/37
f 59/106/38 130/107/38 129/108/38
f 95/109/39 63/110/39 61/111/39
f 126/109/40 64/112/40 63/110/40
f 125/113/39 65/114/39 64/112/39
f 124/113/40 66/115/40 65/114/40
f 123/116/39 67/117/39 66/115/39
f 122/118/40 68/119/40 67/117/40
f 121/120/39 69/121/39 68/119/39
f 120/122/40 70/123/40 69/121/40
f 119/124/39 71/125/39 70/123/39
f 118/124/40 72/126/40 71/125/40
f 117/127/39 73/128/39 72/126/39
f 116/129/40 74/130/40 73/128/40
f 115/131/39 75/132/39 74/130/39
f 114/133/40 76/134/40 75/132/40
f 113/135/39 77/136/39 76/134/39
f 112/135/40 78/137/40 77/136/40
f 111/138/39 79/139/39 78/137/39
f 110/140/40 80/141/40 79/139/40
f 109/140/39 81/142/39 80/141/39
f 108/143/40 82/144/40 81/142/40
f 107/145/39 83/146/39 82/144/39
f 106/147/40 84/148/40 83/146/40
f 105/149/39 85/150/39 84/148/39
f 104/151/40 86/152/40 85/150/40
f 103/151/39 87/153/39 86/152/39
f 102/154/40 88/155/40 87/153/40
f 101/156/39 89/157/39 88/155/39
f 100/158/40 90/159/40 89/157/40
f 99/160/39 91/161/39 90/159/39
f 98/162/40 92/163/40 91/161/40
f 97/162/39 93/164/39 92/163/39
f 96/165/40 62/166/40 93/164/40
f 130/107/41 75/132/41 77/136/41
f 62/166/39 60/167/39 58/105/39
f 59/168/40 61/111/40 57/169/40
f 102/170/42 112/171/42 114/172/42
f 129/173/43 127/174/43 128/175/43
f 60/103/37 128/176/37 127/104/37
f 59/106/38 57/169/38 130/107/38
f 95/109/39 126/109/39 63/110/39
f 126/109/40 125/113/40 64/112/40
f 125/113/39 124/113/39 65/114/39
f 124/113/40 123/116/40 66/115/40
f 123/116/39 122/118/39 67/117/39
f 122/118/40 121/120/40 68/119/40
f 121/120/39 120/122/39 69/121/39
f 120/122/40 119/124/40 70/123/40
f 119/124/39 118/124/39 71/125/39
f 118/124/40 117/127/40 72/126/40
f 117/127/39 116/129/39 73/128/39
f 116/129/40 115/131/40 74/130/40
f 115/131/39 114/133/39 75/132/39
f 114/133/40 113/135/40 76/134/40
f 113/135/39 112/135/39 77/136/39
f 112/135/40 111/177/40 78/137/40
f 111/138/39 110/140/39 79/139/39
f 110/140/40 109/140/40 80/141/40
f 109/140/39 108/143/39 81/142/39
f 108/143/40 107/145/40 82/144/40
f 107/145/39 106/147/39 83/146/39
f 106/147/40 105/149/40 84/148/40
f 105/149/39 104/151/39 85/150/39
f 104/151/40 103/151/40 86/152/40
f 103/151/39 102/154/39 87/153/39
f 102/154/40 101/156/40 88/155/40
f 101/156/39 100/158/39 89/157/39
f 100/158/40 99/160/40 90/159/40
f 99/160/39 98/162/39 91/161/39
f 98/162/40 97/162/40 92/163/40
f 97/162/39 96/165/39 93/164/39
f 96/165/40 94/178/40 62/166/40
f 93/164/41 62/166/41 58/105/41
f 58/105/41 127/104/41 130/107/41
f 130/107/41 57/169/41 61/111/41
f 63/110/41 64/112/41 65/114/41
f 130/107/41 61/111/41 63/110/41
f 93/164/41 58/105/41 130/107/41
f 91/161/41 92/163/41 93/164/41
f 89/157/41 90/159/41 91/161/41
f 87/153/41 88/155/41 89/157/41
f 85/150/41 86/152/41 87/153/41
f 83/146/41 84/148/41 85/150/41
f 81/142/41 82/144/41 83/146/41
f 79/139/41 80/141/41 81/142/41
f 77/136/41 78/137/41 79/139/41
f 75/132/41 76/134/41 77/136/41
f 73/128/41 74/130/41 75/132/41
f 71/125/41 72/126/41 73/128/41
f 69/121/41 70/123/41 71/125/41
f 67/117/41 68/119/41 69/121/41
f 65/114/41 66/115/41 67/117/41
f 130/107/41 63/110/41 65/114/41
f 91/161/41 93/164/41 130/107/41
f 87/153/42 89/157/42 91/161/42
f 83/146/41 85/150/41 87/153/41
f 81/142/41 83/146/41 87/153/41
f 87/153/41 91/161/41 130/107/41
f 130/107/41 65/114/41 67/117/41
f 69/121/41 71/125/41 73/128/41
f 130/107/41 67/117/41 69/121/41
f 81/142/41 87/153/41 130/107/41
f 79/139/41 81/142/41 130/107/41
f 130/107/41 69/121/41 73/128/41
f 130/107/41 73/128/41 75/132/41
f 77/136/41 79/139/41 130/107/41
f 62/166/39 94/178/39 60/167/39
f 59/168/40 95/109/40 61/111/40
f 95/179/42 59/106/42 129/108/42
f 129/108/42 128/180/42 60/181/42
f 60/181/42 94/182/42 96/183/42
f 96/183/42 97/184/42 98/185/42
f 98/185/42 99/186/42 100/187/42
f 100/187/42 101/188/42 102/170/42
f 102/170/42 103/189/42 104/190/42
f 104/190/42 105/191/42 106/192/42
f 106/192/42 107/193/42 108/194/42
f 108/194/42 109/195/42 110/196/42
f 110/196/42 111/197/42 112/171/42
f 112/171/42 113/198/42 114/172/42
f 114/172/42 115/199/42 116/200/42
f 116/200/42 117/201/42 118/202/42
f 118/202/42 119/203/42 120/204/42
f 120/204/42 121/205/42 122/206/42
f 122/206/42 123/207/42 124/208/42
f 124/208/42 125/209/42 126/210/42
f 126/210/42 95/179/42 129/108/42
f 129/108/42 60/181/42 96/183/42
f 98/185/41 100/187/41 102/170/41
f 129/108/42 96/183/42 98/185/42
f 124/208/42 126/210/42 129/108/42
f 120/204/40 122/206/40 124/208/40
f 116/200/42 118/202/42 120/204/42
f 114/172/42 116/200/42 120/204/42
f 120/204/42 124/208/42 129/108/42
f 129/108/42 98/185/42 102/170/42
f 102/170/42 104/190/42 106/192/42
f 102/170/42 106/192/42 108/194/42
f 120/204/42 129/108/42 102/170/42
f 114/172/42 120/204/42 102/170/42
f 102/170/42 108/194/42 110/196/42
f 102/170/42 110/196/42 112/171/42
f 129/173/43 130/211/43 127/174/43
