# Blender 4.5.3 LTS
# www.blender.org
mtllib house_2ndFloor_wall.mtl
g Cube.036_Mesh
v -4.000000 14.000000 -26.000000
v -4.000000 8.000000 -26.000000
v -4.000000 14.000000 -25.799999
v -4.000000 8.000000 -25.799999
v -36.000000 14.000000 -26.000000
v -36.000000 8.000000 -26.000000
v -36.000000 14.000000 -25.799999
v -36.000000 8.000000 -25.799999
v -25.000000 12.600000 -25.799999
v -31.000000 9.600000 -25.799999
v -31.000000 12.600000 -25.799999
v -25.000000 9.600000 -25.799999
v -31.000000 9.600000 -26.000000
v -31.000000 12.600000 -26.000000
v -25.000000 12.600000 -26.000000
v -25.000000 9.600000 -26.000000
v -15.000000 12.600000 -25.799999
v -15.000000 9.600000 -25.799999
v -9.000000 9.600000 -25.799999
v -9.000000 12.600000 -25.799999
v -15.000000 9.600000 -26.000000
v -15.000000 12.600000 -26.000000
v -9.000000 9.600000 -26.000000
v -9.000000 12.600000 -26.000000
vn -0.0000 1.0000 -0.0000
vn -0.0000 -0.0000 1.0000
vn -1.0000 -0.0000 -0.0000
vn -0.0000 -1.0000 -0.0000
vn 1.0000 -0.0000 -0.0000
vn -0.0000 -0.0000 -1.0000
vt 0.875000 0.500000
vt 0.625000 0.750000
vt 0.625000 0.500000
vt 0.625000 1.000000
vt 0.441667 0.960938
vt 0.566667 0.960937
vt 0.441667 0.789063
vt 0.566667 0.789062
vt 0.441667 0.914062
vt 0.375000 0.750000
vt 0.441667 0.835938
vt 0.625000 0.000000
vt 0.375000 0.250000
vt 0.375000 0.000000
vt 0.375000 0.500000
vt 0.125000 0.750000
vt 0.125000 0.500000
vt 0.625000 0.250000
vt 0.441667 0.289062
vt 0.566667 0.335938
vt 0.566667 0.414062
vt 0.441667 0.460938
vt 0.566667 0.460938
vt 0.875000 0.675000
vt 0.625000 0.625000
vt 0.625000 0.675000
vt 0.375000 0.075000
vt 0.625000 0.125000
vt 0.625000 0.075000
vt 0.125000 0.675000
vt 0.375000 0.625000
vt 0.125000 0.625000
vt 0.375000 0.675000
vt 0.375000 0.125000
vt 0.875000 0.750000
vt 0.375000 1.000000
vt 0.566667 0.835937
vt 0.566667 0.914062
vt 0.566667 0.289062
vt 0.441667 0.414062
vt 0.441667 0.335938
vt 0.875000 0.625000
s 0
usemtl Material.020
f 5/1/1 3/2/1 1/3/1
f 7/4/2 10/5/2 11/6/2
f 19/7/2 3/2/2 20/8/2
f 12/9/2 4/10/2 18/11/2
f 7/12/3 6/13/3 8/14/3
f 2/15/4 8/16/4 6/17/4
f 1/3/5 4/10/5 2/15/5
f 5/18/6 13/19/6 6/13/6
f 15/20/6 1/3/6 22/21/6
f 1/3/6 23/22/6 24/23/6
f 11/24/4 15/25/4 9/26/4
f 10/27/5 14/28/5 11/29/5
f 10/30/1 16/31/1 13/32/1
f 12/33/3 15/25/3 16/31/3
f 17/24/4 24/25/4 20/26/4
f 17/29/5 21/34/5 22/28/5
f 18/30/1 23/31/1 21/32/1
f 19/33/3 24/25/3 23/31/3
f 5/1/1 7/35/1 3/2/1
f 7/4/2 8/36/2 10/5/2
f 19/7/2 4/10/2 3/2/2
f 17/37/2 20/8/2 3/2/2
f 3/2/2 7/4/2 11/6/2
f 3/2/2 11/6/2 9/38/2
f 17/37/2 3/2/2 9/38/2
f 12/9/2 10/5/2 8/36/2
f 17/37/2 9/38/2 12/9/2
f 4/10/2 19/7/2 18/11/2
f 18/11/2 17/37/2 12/9/2
f 12/9/2 8/36/2 4/10/2
f 7/12/3 5/18/3 6/13/3
f 2/15/4 4/10/4 8/16/4
f 1/3/5 3/2/5 4/10/5
f 5/18/6 14/39/6 13/19/6
f 21/40/6 23/22/6 2/15/6
f 2/15/6 6/13/6 13/19/6
f 2/15/6 13/19/6 16/41/6
f 21/40/6 2/15/6 16/41/6
f 15/20/6 14/39/6 5/18/6
f 21/40/6 16/41/6 15/20/6
f 1/3/6 24/23/6 22/21/6
f 22/21/6 21/40/6 15/20/6
f 15/20/6 5/18/6 1/3/6
f 1/3/6 2/15/6 23/22/6
f 11/24/4 14/42/4 15/25/4
f 10/27/5 13/34/5 14/28/5
f 10/30/1 12/33/1 16/31/1
f 12/33/3 9/26/3 15/25/3
f 17/24/4 22/42/4 24/25/4
f 17/29/5 18/27/5 21/34/5
f 18/30/1 19/33/1 23/31/1
f 19/33/3 20/26/3 24/25/3
g Cube.037_Mesh
v -20.000000 14.000000 -8.200000
v -20.000000 8.000000 -8.200000
v -20.000000 14.000000 -7.800000
v -20.000000 8.000000 -7.800000
v -36.000000 14.000000 -8.200000
v -36.000000 8.000000 -8.200000
v -36.000000 14.000000 -7.800000
v -36.000000 8.000000 -7.800000
v -24.099998 12.200001 -7.800000
v -21.899998 12.200001 -7.800000
v -21.899998 8.000000 -7.800000
v -24.099998 8.000000 -7.800000
v -24.099998 8.000000 -8.200000
v -21.899998 8.000000 -8.200000
v -24.099998 12.200001 -8.200000
v -21.899998 12.200001 -8.200000
vn -0.0000 1.0000 -0.0000
vn -0.0000 -0.0000 1.0000
vn -1.0000 -0.0000 -0.0000
vn -0.0000 -1.0000 -0.0000
vn 1.0000 -0.0000 -0.0000
vn -0.0000 -0.0000 -1.0000
vt 0.875000 0.500000
vt 0.625000 0.750000
vt 0.625000 0.500000
vt 0.550000 0.814062
vt 0.550000 0.779687
vt 0.625000 0.000000
vt 0.375000 0.250000
vt 0.375000 0.000000
vt 0.375000 0.500000
vt 0.345313 0.750000
vt 0.345313 0.500000
vt 0.125000 0.500000
vt 0.310938 0.750000
vt 0.125000 0.750000
vt 0.375000 0.750000
vt 0.625000 0.250000
vt 0.550000 0.435938
vt 0.875000 0.621573
vt 0.625000 0.571573
vt 0.625000 0.621573
vt 0.386364 0.128427
vt 0.625000 0.178427
vt 0.625000 0.128427
vt 0.386364 0.621573
vt 0.875000 0.750000
vt 0.375000 0.779687
vt 0.625000 1.000000
vt 0.375000 1.000000
vt 0.375000 0.814062
vt 0.310938 0.500000
vt 0.375000 0.435938
vt 0.375000 0.470313
vt 0.550000 0.470313
vt 0.875000 0.571573
vt 0.386364 0.178427
vt 0.386364 0.571573
s 0
usemtl Material.021
f 29/43/7 27/44/7 25/45/7
f 27/44/8 33/46/8 34/47/8
f 31/48/9 30/49/9 32/50/9
f 26/51/10 35/52/10 38/53/10
f 30/54/10 36/55/10 32/56/10
f 25/45/11 28/57/11 26/51/11
f 29/58/12 25/45/12 39/59/12
f 33/60/10 40/61/10 34/62/10
f 36/63/11 39/64/11 33/65/11
f 40/61/9 35/66/9 34/62/9
f 29/43/7 31/67/7 27/44/7
f 35/68/8 28/57/8 27/44/8
f 27/44/8 31/69/8 32/70/8
f 32/70/8 36/71/8 33/46/8
f 34/47/8 35/68/8 27/44/8
f 27/44/8 32/70/8 33/46/8
f 31/48/9 29/58/9 30/49/9
f 26/51/10 28/57/10 35/52/10
f 30/54/10 37/72/10 36/55/10
f 25/45/11 27/44/11 28/57/11
f 37/73/12 30/49/12 29/58/12
f 25/45/12 26/51/12 38/74/12
f 25/45/12 38/74/12 40/75/12
f 39/59/12 37/73/12 29/58/12
f 25/45/12 40/75/12 39/59/12
f 33/60/10 39/76/10 40/61/10
f 36/63/11 37/77/11 39/64/11
f 40/61/9 38/78/9 35/66/9
g Cube.038_Mesh
v -35.800003 14.000000 -26.000000
v -35.800003 8.000000 -26.000000
v -35.800003 14.000000 8.000000
v -35.800003 8.000000 8.000000
v -36.000000 14.000000 -26.000000
v -36.000000 8.000000 -26.000000
v -36.000000 14.000000 8.000000
v -36.000000 8.000000 8.000000
v -36.000000 9.600000 2.999996
v -36.000000 12.600000 2.999996
v -36.000000 12.600000 -3.000003
v -36.000000 9.600000 -3.000003
v -35.800003 12.600000 -3.000003
v -35.800003 9.600000 2.999996
v -35.800003 12.600000 2.999996
v -35.800003 9.600000 -3.000003
v -36.000000 9.600000 -12.999998
v -36.000000 12.600000 -12.999998
v -36.000000 9.600000 -18.999998
v -36.000000 12.600000 -18.999998
v -35.800003 12.600000 -12.999998
v -35.800003 9.600000 -12.999998
v -35.800003 9.600000 -18.999998
v -35.800003 12.600000 -18.999998
vn -0.0000 1.0000 -0.0000
vn -0.0000 -0.0000 1.0000
vn -1.0000 -0.0000 -0.0000
vn -0.0000 -1.0000 -0.0000
vn 1.0000 -0.0000 -0.0000
vn -0.0000 -0.0000 -1.0000
vt 0.875000 0.500000
vt 0.625000 0.750000
vt 0.625000 0.500000
vt 0.375000 1.000000
vt 0.375000 0.750000
vt 0.625000 0.000000
vt 0.441667 0.036765
vt 0.375000 0.000000
vt 0.625000 0.250000
vt 0.375000 0.250000
vt 0.566667 0.198529
vt 0.566667 0.080882
vt 0.441667 0.154412
vt 0.441667 0.080882
vt 0.375000 0.500000
vt 0.125000 0.750000
vt 0.125000 0.500000
vt 0.441667 0.713235
vt 0.566667 0.713235
vt 0.441667 0.551471
vt 0.441667 0.669118
vt 0.566667 0.595588
vt 0.566667 0.669118
vt 0.750000 0.500000
vt 0.700000 0.750000
vt 0.750000 0.750000
vt 0.375000 0.875000
vt 0.625000 0.825000
vt 0.375000 0.825000
vt 0.250000 0.750000
vt 0.300000 0.500000
vt 0.250000 0.500000
vt 0.625000 0.375000
vt 0.375000 0.425000
vt 0.625000 0.425000
vt 0.700000 0.500000
vt 0.375000 0.375000
vt 0.875000 0.750000
vt 0.625000 1.000000
vt 0.566667 0.036765
vt 0.566667 0.154412
vt 0.441667 0.198529
vt 0.441667 0.595588
vt 0.566667 0.551471
vt 0.625000 0.875000
vt 0.300000 0.750000
s 0
usemtl Material.022
f 45/79/13 43/80/13 41/81/13
f 43/80/14 48/82/14 44/83/14
f 47/84/15 49/85/15 48/86/15
f 45/87/15 46/88/15 60/89/15
f 51/90/15 57/91/15 52/92/15
f 42/93/16 48/94/16 46/95/16
f 43/80/17 54/96/17 55/97/17
f 42/93/17 41/81/17 63/98/17
f 56/99/17 61/100/17 53/101/17
f 45/87/18 42/93/18 46/88/18
f 51/102/16 55/103/16 50/104/16
f 49/105/18 55/106/18 54/107/18
f 49/108/13 56/109/13 52/110/13
f 51/111/14 56/112/14 53/113/14
f 64/114/16 58/104/16 60/102/16
f 57/105/18 61/106/18 62/107/18
f 57/108/13 63/109/13 59/110/13
f 59/115/14 64/113/14 60/111/14
f 45/79/13 47/116/13 43/80/13
f 43/80/14 47/117/14 48/82/14
f 47/84/15 50/118/15 49/85/15
f 50/118/15 47/84/15 45/87/15
f 46/88/15 48/86/15 49/85/15
f 46/88/15 49/85/15 52/92/15
f 51/90/15 50/118/15 45/87/15
f 58/119/15 51/90/15 45/87/15
f 46/88/15 52/92/15 57/91/15
f 46/88/15 57/91/15 59/120/15
f 60/89/15 58/119/15 45/87/15
f 46/88/15 59/120/15 60/89/15
f 51/90/15 58/119/15 57/91/15
f 42/93/16 44/83/16 48/94/16
f 43/80/17 44/83/17 54/96/17
f 56/99/17 54/96/17 44/83/17
f 41/81/17 43/80/17 55/97/17
f 41/81/17 55/97/17 53/101/17
f 56/99/17 44/83/17 42/93/17
f 62/121/17 56/99/17 42/93/17
f 41/81/17 53/101/17 61/100/17
f 41/81/17 61/100/17 64/122/17
f 63/98/17 62/121/17 42/93/17
f 41/81/17 64/122/17 63/98/17
f 56/99/17 62/121/17 61/100/17
f 45/87/18 41/81/18 42/93/18
f 51/102/16 53/114/16 55/103/16
f 49/105/18 50/123/18 55/106/18
f 49/108/13 54/124/13 56/109/13
f 51/111/14 52/115/14 56/112/14
f 64/114/16 61/103/16 58/104/16
f 57/105/18 58/123/18 61/106/18
f 57/108/13 62/124/13 63/109/13
f 59/115/14 63/112/14 64/113/14
g Cube.040_Mesh
v -20.055029 14.000000 -7.799999
v -20.055029 8.000000 -7.799999
v -20.055029 14.000000 -8.199999
v -20.055029 8.000000 -8.199999
v -4.055029 14.000000 -7.800001
v -4.055029 8.000000 -7.800001
v -4.055029 14.000000 -8.200001
v -4.055029 8.000000 -8.200001
v -15.955030 12.200001 -8.200000
v -18.155031 12.200001 -8.200000
v -18.155031 8.000000 -8.200000
v -15.955030 8.000000 -8.200000
v -15.955030 8.000000 -7.800000
v -18.155031 8.000000 -7.799999
v -15.955030 12.200001 -7.800000
v -18.155031 12.200001 -7.799999
vn -0.0000 1.0000 -0.0000
vn -0.0000 -0.0000 -1.0000
vn 1.0000 -0.0000 -0.0000
vn -0.0000 -1.0000 -0.0000
vn -1.0000 -0.0000 -0.0000
vn -0.0000 -0.0000 1.0000
vt 0.875000 0.500000
vt 0.625000 0.750000
vt 0.625000 0.500000
vt 0.550000 0.814062
vt 0.550000 0.779687
vt 0.625000 0.000000
vt 0.375000 0.250000
vt 0.375000 0.000000
vt 0.375000 0.500000
vt 0.345313 0.750000
vt 0.345313 0.500000
vt 0.125000 0.500000
vt 0.310938 0.750000
vt 0.125000 0.750000
vt 0.375000 0.750000
vt 0.625000 0.250000
vt 0.550000 0.435938
vt 0.875000 0.621573
vt 0.625000 0.571573
vt 0.625000 0.621573
vt 0.386364 0.128427
vt 0.625000 0.178427
vt 0.625000 0.128427
vt 0.386364 0.621573
vt 0.875000 0.750000
vt 0.375000 0.779687
vt 0.625000 1.000000
vt 0.375000 1.000000
vt 0.375000 0.814062
vt 0.310938 0.500000
vt 0.375000 0.435938
vt 0.375000 0.470313
vt 0.550000 0.470313
vt 0.875000 0.571573
vt 0.386364 0.178427
vt 0.386364 0.571573
s 0
usemtl Material.026
f 69/125/19 67/126/19 65/127/19
f 67/126/20 73/128/20 74/129/20
f 71/130/21 70/131/21 72/132/21
f 66/133/22 75/134/22 78/135/22
f 70/136/22 76/137/22 72/138/22
f 65/127/23 68/139/23 66/133/23
f 69/140/24 65/127/24 79/141/24
f 73/142/22 80/143/22 74/144/22
f 76/145/23 79/146/23 73/147/23
f 80/143/21 75/148/21 74/144/21
f 69/125/19 71/149/19 67/126/19
f 75/150/20 68/139/20 67/126/20
f 67/126/20 71/151/20 72/152/20
f 72/152/20 76/153/20 73/128/20
f 74/129/20 75/150/20 67/126/20
f 67/126/20 72/152/20 73/128/20
f 71/130/21 69/140/21 70/131/21
f 66/133/22 68/139/22 75/134/22
f 70/136/22 77/154/22 76/137/22
f 65/127/23 67/126/23 68/139/23
f 77/155/24 70/131/24 69/140/24
f 65/127/24 66/133/24 78/156/24
f 65/127/24 78/156/24 80/157/24
f 79/141/24 77/155/24 69/140/24
f 65/127/24 80/157/24 79/141/24
f 73/142/22 79/158/22 80/143/22
f 76/145/23 77/159/23 79/146/23
f 80/143/21 78/160/21 75/148/21
g Cube.042_Mesh
v -19.799999 14.000000 -8.200001
v -19.799999 8.000000 -8.200001
v -19.799999 14.000000 8.000000
v -19.799999 8.000000 8.000000
v -20.200001 14.000000 -8.200001
v -20.200001 8.000000 -8.200001
v -20.200001 14.000000 8.000000
v -20.200001 8.000000 8.000000
vn -0.0000 1.0000 -0.0000
vn -0.0000 -0.0000 1.0000
vn -1.0000 -0.0000 -0.0000
vn -0.0000 -1.0000 -0.0000
vn 1.0000 -0.0000 -0.0000
vn -0.0000 -0.0000 -1.0000
vt 0.875000 0.500000
vt 0.625000 0.750000
vt 0.625000 0.500000
vt 0.375000 1.000000
vt 0.375000 0.750000
vt 0.625000 0.000000
vt 0.375000 0.250000
vt 0.375000 0.000000
vt 0.375000 0.500000
vt 0.125000 0.750000
vt 0.125000 0.500000
vt 0.625000 0.250000
vt 0.875000 0.750000
vt 0.625000 1.000000
s 0
usemtl Material.036
f 85/161/25 83/162/25 81/163/25
f 83/162/26 88/164/26 84/165/26
f 87/166/27 86/167/27 88/168/27
f 82/169/28 88/170/28 86/171/28
f 81/163/29 84/165/29 82/169/29
f 85/172/30 82/169/30 86/167/30
f 85/161/25 87/173/25 83/162/25
f 83/162/26 87/174/26 88/164/26
f 87/166/27 85/172/27 86/167/27
f 82/169/28 84/165/28 88/170/28
f 81/163/29 83/162/29 84/165/29
f 85/172/30 81/163/30 82/169/30
g Cube.043_Mesh
v -4.000000 14.000000 -14.200000
v -4.000000 8.000000 -14.200000
v -4.000000 14.000000 -13.800000
v -4.000000 8.000000 -13.800000
v -20.200001 14.000000 -14.200000
v -20.200001 8.000000 -14.200000
v -20.200001 14.000000 -13.800000
v -20.200001 8.000000 -13.800000
v -18.199999 8.000000 -13.800000
v -18.199999 12.199999 -13.800000
v -16.000000 12.199999 -13.800000
v -16.000000 8.000000 -13.800000
v -18.199999 8.000000 -14.200000
v -16.000000 8.000000 -14.200000
v -16.000000 12.199999 -14.200000
v -18.199999 12.199999 -14.200000
vn -0.0000 1.0000 -0.0000
vn -0.0000 -0.0000 1.0000
vn -1.0000 -0.0000 -0.0000
vn -0.0000 -1.0000 -0.0000
vn 1.0000 -0.0000 -0.0000
vn -0.0000 -0.0000 -1.0000
vt 0.875000 0.500000
vt 0.625000 0.750000
vt 0.625000 0.500000
vt 0.625000 1.000000
vt 0.550000 0.935185
vt 0.625000 0.000000
vt 0.375000 0.250000
vt 0.375000 0.000000
vt 0.375000 0.500000
vt 0.189815 0.750000
vt 0.189815 0.500000
vt 0.125000 0.500000
vt 0.155864 0.750000
vt 0.125000 0.750000
vt 0.375000 0.750000
vt 0.625000 0.250000
vt 0.550000 0.314815
vt 0.550000 0.280864
vt 0.875000 0.627531
vt 0.625000 0.577531
vt 0.625000 0.627531
vt 0.386364 0.122469
vt 0.625000 0.172469
vt 0.625000 0.122469
vt 0.386364 0.577531
vt 0.386364 0.627531
vt 0.875000 0.750000
vt 0.375000 0.935185
vt 0.375000 1.000000
vt 0.375000 0.969136
vt 0.550000 0.969136
vt 0.155864 0.500000
vt 0.375000 0.280864
vt 0.375000 0.314815
vt 0.875000 0.577531
vt 0.386364 0.172469
s 0
usemtl Material.037
f 93/175/31 91/176/31 89/177/31
f 91/176/32 95/178/32 99/179/32
f 95/180/33 94/181/33 96/182/33
f 90/183/34 100/184/34 102/185/34
f 94/186/34 97/187/34 96/188/34
f 89/177/35 92/189/35 90/183/35
f 93/190/36 103/191/36 104/192/36
f 98/193/34 103/194/34 99/195/34
f 97/196/35 104/197/35 98/198/35
f 99/195/33 102/199/33 100/200/33
f 93/175/31 95/201/31 91/176/31
f 100/202/32 92/189/32 91/176/32
f 95/178/32 96/203/32 97/204/32
f 95/178/32 97/204/32 98/205/32
f 99/179/32 100/202/32 91/176/32
f 95/178/32 98/205/32 99/179/32
f 95/180/33 93/190/33 94/181/33
f 90/183/34 92/189/34 100/184/34
f 94/186/34 101/206/34 97/187/34
f 89/177/35 91/176/35 92/189/35
f 101/207/36 94/181/36 93/190/36
f 93/190/36 89/177/36 90/183/36
f 90/183/36 102/208/36 103/191/36
f 104/192/36 101/207/36 93/190/36
f 93/190/36 90/183/36 103/191/36
f 98/193/34 104/209/34 103/194/34
f 97/196/35 101/210/35 104/197/35
f 99/195/33 103/194/33 102/199/33
g Cube.030_Mesh
v -3.800000 14.000000 -26.000000
v -3.800000 8.000000 -26.000000
v -3.800000 14.000000 8.000000
v -3.800000 8.000000 8.000000
v -4.200000 14.000000 -26.000000
v -4.200000 8.000000 -26.000000
v -4.200000 14.000000 8.000000
v -4.200000 8.000000 8.000000
v -4.200000 12.099999 -9.900002
v -4.200000 12.099999 -12.100002
v -4.200000 8.000000 -9.900002
v -4.200000 8.000000 -12.100002
v -3.800000 8.000000 -9.900002
v -3.800000 8.000000 -12.100002
v -3.800000 12.099999 -9.900002
v -3.800000 12.099999 -12.100002
v -4.200000 9.600000 2.999996
v -4.200000 9.600000 -3.000003
v -4.200000 12.600000 2.999996
v -4.200000 12.600000 -3.000003
v -3.800000 9.600000 2.999996
v -3.800000 9.600000 -3.000003
v -3.800000 12.600000 2.999996
v -3.800000 12.600000 -3.000003
v -4.200000 9.600000 -17.000004
v -4.200000 9.600000 -23.000002
v -4.200000 12.600000 -23.000002
v -4.200000 11.700000 -17.000004
v -4.200000 12.600000 -17.000004
v -3.800000 9.600000 -17.000004
v -3.800000 12.600000 -17.000004
v -3.800000 9.600000 -23.000002
v -3.800000 12.600000 -23.000002
vn -0.0000 1.0000 -0.0000
vn -0.0000 -0.0000 1.0000
vn -1.0000 -0.0000 -0.0000
vn -0.0000 -1.0000 -0.0000
vn 1.0000 -0.0000 -0.0000
vn -0.0000 -0.0000 -1.0000
vt 0.875000 0.500000
vt 0.625000 0.750000
vt 0.625000 0.500000
vt 0.375000 1.000000
vt 0.375000 0.750000
vt 0.375000 0.250000
vt 0.375000 0.147794
vt 0.441667 0.227941
vt 0.545833 0.147794
vt 0.625000 0.000000
vt 0.566667 0.183824
vt 0.375000 0.131618
vt 0.375000 0.000000
vt 0.441667 0.080882
vt 0.125000 0.750000
vt 0.375000 0.618382
vt 0.125000 0.500000
vt 0.375000 0.602206
vt 0.125000 0.602206
vt 0.566667 0.669118
vt 0.566667 0.566177
vt 0.375000 0.500000
vt 0.441667 0.566176
vt 0.441667 0.713235
vt 0.625000 0.250000
vt 0.723861 0.500000
vt 0.748861 0.750000
vt 0.748861 0.500000
vt 0.625000 0.848861
vt 0.380952 0.873861
vt 0.625000 0.873861
vt 0.625000 0.376139
vt 0.380952 0.401139
vt 0.625000 0.401139
vt 0.750000 0.500000
vt 0.800000 0.750000
vt 0.800000 0.500000
vt 0.375000 0.925000
vt 0.625000 0.875000
vt 0.375000 0.875000
vt 0.200000 0.750000
vt 0.250000 0.500000
vt 0.200000 0.500000
vt 0.375000 0.325000
vt 0.625000 0.375000
vt 0.625000 0.325000
vt 0.550000 0.925000
vt 0.875000 0.750000
vt 0.625000 1.000000
vt 0.566667 0.227941
vt 0.529167 0.183824
vt 0.441667 0.183824
vt 0.545833 0.131618
vt 0.566667 0.080882
vt 0.566667 0.036765
vt 0.441667 0.036765
vt 0.125000 0.618382
vt 0.545833 0.618382
vt 0.545833 0.602206
vt 0.566667 0.522059
vt 0.566667 0.713235
vt 0.441667 0.522059
vt 0.441667 0.669118
vt 0.723861 0.750000
vt 0.380952 0.848861
vt 0.380952 0.376139
vt 0.750000 0.750000
vt 0.625000 0.925000
vt 0.250000 0.750000
vt 0.375000 0.375000
s 0
usemtl Material.063
f 109/211/37 107/212/37 105/213/37
f 107/212/38 112/214/38 108/215/38
f 110/216/39 116/217/39 130/218/39
f 114/219/39 111/220/39 133/221/39
f 115/222/39 112/223/39 122/224/39
f 112/225/40 117/226/40 108/215/40
f 110/227/40 118/228/40 116/229/40
f 128/230/41 135/231/41 107/212/41
f 118/228/41 106/232/41 134/233/41
f 108/215/41 117/226/41 125/234/41
f 109/235/42 106/232/42 110/216/42
f 120/236/40 113/237/40 114/238/40
f 119/239/42 115/240/42 113/241/42
f 114/242/38 118/243/38 120/244/38
f 128/245/40 123/246/40 124/247/40
f 121/248/42 127/249/42 125/250/42
f 121/251/37 126/252/37 122/253/37
f 122/254/38 128/255/38 124/256/38
f 137/245/40 133/246/40 131/247/40
f 132/257/42 135/249/42 129/248/42
f 129/251/37 136/252/37 130/253/37
f 130/254/38 137/255/38 131/256/38
f 109/211/37 111/258/37 107/212/37
f 107/212/38 111/259/38 112/214/38
f 131/260/39 109/235/39 110/216/39
f 116/217/39 114/219/39 132/261/39
f 116/217/39 132/261/39 129/262/39
f 130/218/39 131/260/39 110/216/39
f 116/217/39 129/262/39 130/218/39
f 114/219/39 113/263/39 124/264/39
f 124/264/39 123/265/39 111/220/39
f 111/220/39 109/235/39 131/260/39
f 133/221/39 132/261/39 114/219/39
f 111/220/39 131/260/39 133/221/39
f 114/219/39 124/264/39 111/220/39
f 122/224/39 124/264/39 113/263/39
f 112/223/39 111/220/39 123/265/39
f 112/223/39 123/265/39 121/266/39
f 122/224/39 113/263/39 115/222/39
f 112/223/39 121/266/39 122/224/39
f 112/225/40 115/267/40 117/226/40
f 110/227/40 106/232/40 118/228/40
f 128/230/41 119/268/41 120/269/41
f 135/231/41 137/270/41 105/213/41
f 128/230/41 120/269/41 135/231/41
f 107/212/41 127/271/41 128/230/41
f 135/231/41 105/213/41 107/212/41
f 134/233/41 135/231/41 120/269/41
f 106/232/41 105/213/41 137/270/41
f 106/232/41 137/270/41 136/272/41
f 134/233/41 120/269/41 118/228/41
f 106/232/41 136/272/41 134/233/41
f 125/234/41 127/271/41 107/212/41
f 117/226/41 119/268/41 128/230/41
f 117/226/41 128/230/41 126/273/41
f 125/234/41 107/212/41 108/215/41
f 117/226/41 126/273/41 125/234/41
f 109/235/42 105/213/42 106/232/42
f 120/236/40 119/274/40 113/237/40
f 119/239/42 117/275/42 115/240/42
f 114/242/38 116/276/38 118/243/38
f 128/245/40 127/277/40 123/246/40
f 121/248/42 123/278/42 127/249/42
f 121/251/37 125/279/37 126/252/37
f 122/254/38 126/280/38 128/255/38
f 137/245/40 135/277/40 133/246/40
f 132/257/42 133/278/42 135/249/42
f 135/249/42 134/250/42 129/248/42
f 129/251/37 134/279/37 136/252/37
f 130/254/38 136/280/38 137/255/38
g Cube.029_Mesh
v -4.000000 14.000000 7.800000
v -4.000000 8.000000 7.800000
v -4.000000 14.000000 8.000000
v -4.000000 8.000000 8.000000
v -36.000000 14.000000 7.800000
v -36.000000 8.000000 7.800000
v -36.000000 14.000000 8.000000
v -36.000000 8.000000 8.000000
v -15.000000 12.600000 8.000000
v -9.000000 9.600000 8.000000
v -9.000000 12.600000 8.000000
v -15.000000 9.600000 8.000000
v -15.000000 12.600000 7.800000
v -15.000000 9.600000 7.800000
v -9.000000 9.600000 7.800000
v -9.000000 12.600000 7.800000
v -25.000000 9.600000 8.000000
v -31.000000 9.600000 8.000000
v -31.000000 12.600000 8.000000
v -25.000000 12.600000 8.000000
v -25.000000 12.600000 7.800000
v -31.000000 9.600000 7.800000
v -31.000000 12.600000 7.800000
v -25.000000 9.600000 7.800000
vn -0.0000 1.0000 -0.0000
vn -0.0000 -0.0000 1.0000
vn -1.0000 -0.0000 -0.0000
vn -0.0000 -1.0000 -0.0000
vn 1.0000 -0.0000 -0.0000
vn -0.0000 -0.0000 -1.0000
vt 0.875000 0.500000
vt 0.625000 0.750000
vt 0.625000 0.500000
vt 0.441667 0.789062
vt 0.566667 0.789062
vt 0.625000 1.000000
vt 0.441667 0.960938
vt 0.566667 0.960938
vt 0.566667 0.835938
vt 0.566667 0.914062
vt 0.625000 0.000000
vt 0.375000 0.250000
vt 0.375000 0.000000
vt 0.375000 0.500000
vt 0.125000 0.750000
vt 0.125000 0.500000
vt 0.375000 0.750000
vt 0.441667 0.460938
vt 0.566667 0.460937
vt 0.441667 0.289063
vt 0.625000 0.250000
vt 0.566667 0.289062
vt 0.566667 0.414062
vt 0.441667 0.335938
vt 0.566667 0.335938
vt 0.875000 0.625002
vt 0.625000 0.575002
vt 0.625000 0.625001
vt 0.625000 0.124998
vt 0.375000 0.174998
vt 0.625000 0.174998
vt 0.125000 0.625001
vt 0.375000 0.575002
vt 0.125000 0.575002
vt 0.375000 0.625002
vt 0.625000 0.625002
vt 0.375000 0.124998
vt 0.375000 0.625001
vt 0.875000 0.750000
vt 0.375000 1.000000
vt 0.441667 0.914062
vt 0.441667 0.835938
vt 0.441667 0.414062
vt 0.875000 0.575002
s 0
usemtl Material.017
f 142/281/43 140/282/43 138/283/43
f 147/284/44 140/282/44 148/285/44
f 144/286/44 155/287/44 156/288/44
f 146/289/44 144/286/44 157/290/44
f 144/291/45 143/292/45 145/293/45
f 139/294/46 145/295/46 143/296/46
f 138/283/47 141/297/47 139/294/47
f 138/283/48 152/298/48 153/299/48
f 159/300/48 142/301/48 160/302/48
f 150/303/48 161/304/48 158/305/48
f 146/306/46 153/307/46 148/308/46
f 146/309/47 151/310/47 150/311/47
f 149/312/43 152/313/43 151/314/43
f 147/315/45 153/307/45 152/313/45
f 156/306/46 158/307/46 157/316/46
f 155/317/47 160/311/47 156/309/47
f 155/312/43 161/313/43 159/314/43
f 158/307/45 154/318/45 157/316/45
f 142/281/43 144/319/43 140/282/43
f 147/284/44 141/297/44 140/282/44
f 144/286/44 145/320/44 155/287/44
f 154/321/44 155/287/44 145/320/44
f 145/320/44 141/297/44 147/284/44
f 145/320/44 147/284/44 149/322/44
f 154/321/44 145/320/44 149/322/44
f 146/289/44 148/285/44 140/282/44
f 154/321/44 149/322/44 146/289/44
f 144/286/44 156/288/44 157/290/44
f 157/290/44 154/321/44 146/289/44
f 146/289/44 140/282/44 144/286/44
f 144/291/45 142/301/45 143/292/45
f 139/294/46 141/297/46 145/295/46
f 138/283/47 140/282/47 141/297/47
f 138/283/48 139/294/48 152/298/48
f 159/300/48 143/292/48 142/301/48
f 160/302/48 142/301/48 138/283/48
f 138/283/48 153/299/48 150/303/48
f 151/323/48 152/298/48 139/294/48
f 151/323/48 139/294/48 143/292/48
f 143/292/48 159/300/48 161/304/48
f 158/305/48 160/302/48 138/283/48
f 151/323/48 143/292/48 161/304/48
f 158/305/48 138/283/48 150/303/48
f 150/303/48 151/323/48 161/304/48
f 146/306/46 150/324/46 153/307/46
f 146/309/47 149/317/47 151/310/47
f 149/312/43 147/315/43 152/313/43
f 147/315/45 148/308/45 153/307/45
f 156/306/46 160/324/46 158/307/46
f 155/317/47 159/310/47 160/311/47
f 155/312/43 154/318/43 161/313/43
f 158/307/45 161/313/45 154/318/45
g Cube.044_Mesh
v -19.799999 14.000000 -26.000000
v -19.799999 8.000000 -26.000000
v -19.799999 14.000000 -13.799999
v -19.799999 8.000000 -13.799999
v -20.200001 14.000000 -26.000000
v -20.200001 8.000000 -26.000000
v -20.200001 14.000000 -13.799999
v -20.200001 8.000000 -13.799999
vn -0.0000 1.0000 -0.0000
vn -0.0000 -0.0000 1.0000
vn -1.0000 -0.0000 -0.0000
vn -0.0000 -1.0000 -0.0000
vn 1.0000 -0.0000 -0.0000
vn -0.0000 -0.0000 -1.0000
vt 0.875000 0.500000
vt 0.625000 0.750000
vt 0.625000 0.500000
vt 0.375000 1.000000
vt 0.375000 0.750000
vt 0.625000 0.000000
vt 0.375000 0.250000
vt 0.375000 0.000000
vt 0.375000 0.500000
vt 0.125000 0.750000
vt 0.125000 0.500000
vt 0.625000 0.250000
vt 0.875000 0.750000
vt 0.625000 1.000000
s 0
usemtl Material.038
f 166/325/49 164/326/49 162/327/49
f 164/326/50 169/328/50 165/329/50
f 168/330/51 167/331/51 169/332/51
f 163/333/52 169/334/52 167/335/52
f 162/327/53 165/329/53 163/333/53
f 166/336/54 163/333/54 167/331/54
f 166/325/49 168/337/49 164/326/49
f 164/326/50 168/338/50 169/328/50
f 168/330/51 166/336/51 167/331/51
f 163/333/52 165/329/52 169/334/52
f 162/327/53 164/326/53 165/329/53
f 166/336/54 162/327/54 163/333/54
