# Blender 4.5.3 LTS
# www.blender.org
mtllib house_basement_floor.mtl
g Cube.005_Mesh
v -4.000000 -6.000000 -8.000000
v -20.000000 -6.000000 -22.000000
v -4.000000 -6.000000 -22.000000
v -4.000000 -8.000000 -8.000000
v -20.000000 -8.000000 -22.000000
v -4.000000 -8.000000 -22.000000
v -4.000000 -6.000000 16.000000
v -20.000000 -6.000000 10.000000
v -4.000000 -8.000000 16.000000
v -20.000000 -8.000000 10.000000
v -20.000000 -6.000000 -8.000000
v -32.000000 -6.000000 -22.000000
v -20.000000 -8.000000 -8.000000
v -32.000000 -8.000000 -22.000000
v -20.000000 -6.000000 16.000000
v -32.000000 -6.000000 -8.000000
v -32.000000 -6.000000 10.000000
v -20.000000 -8.000000 16.000000
v -32.000000 -8.000000 -8.000000
v -32.000000 -8.000000 10.000000
vn -0.0000 1.0000 -0.0000
vn -0.0000 -0.0000 1.0000
vn -1.0000 -0.0000 -0.0000
vn -0.0000 -1.0000 -0.0000
vn 1.0000 -0.0000 -0.0000
vn -0.0000 -0.0000 -1.0000
vt 0.625000 0.500000
vt 0.875000 0.687500
vt 0.875000 0.750000
vt 0.625000 0.750000
vt 0.375000 1.000000
vt 0.375000 0.750000
vt 0.375000 0.000000
vt 0.625000 0.062500
vt 0.375000 0.062500
vt 0.125000 0.750000
vt 0.125000 0.687500
vt 0.375000 0.500000
vt 0.875000 0.500000
vt 0.625000 0.000000
vt 0.375000 0.250000
vt 0.125000 0.500000
vt 0.625000 0.250000
vt 0.625000 1.000000
s 0
usemtl Material.006
f 1/1/1 8/2/1 15/3/1
f 7/4/2 18/5/2 9/6/2
f 18/7/3 8/8/3 10/9/3
f 18/10/4 10/11/4 4/12/4
f 1/1/5 9/6/5 4/12/5
f 12/13/1 11/4/1 2/1/1
f 16/14/3 14/15/3 19/7/3
f 5/12/4 19/10/4 14/16/4
f 12/17/6 5/12/6 14/15/6
f 2/13/1 1/4/1 3/1/1
f 6/12/4 13/10/4 5/16/4
f 3/1/5 4/6/5 6/12/5
f 2/17/6 6/12/6 5/15/6
f 16/13/1 8/4/1 11/1/1
f 17/18/2 10/6/2 8/4/2
f 17/14/3 19/15/3 20/7/3
f 13/12/4 20/10/4 19/16/4
f 15/3/1 7/4/1 1/1/1
f 1/1/1 11/13/1 8/2/1
f 7/4/2 15/18/2 18/5/2
f 18/7/3 15/14/3 8/8/3
f 4/12/4 9/6/4 18/10/4
f 10/11/4 13/16/4 4/12/4
f 1/1/5 7/4/5 9/6/5
f 12/13/1 16/3/1 11/4/1
f 16/14/3 12/17/3 14/15/3
f 5/12/4 13/6/4 19/10/4
f 12/17/6 2/1/6 5/12/6
f 2/13/1 11/3/1 1/4/1
f 6/12/4 4/6/4 13/10/4
f 3/1/5 1/4/5 4/6/5
f 2/17/6 3/1/6 6/12/6
f 16/13/1 17/3/1 8/4/1
f 17/18/2 20/5/2 10/6/2
f 17/14/3 16/17/3 19/15/3
f 13/12/4 10/6/4 20/10/4
g Cube.035_Mesh
v -20.000000 -6.000000 -22.000000
v -20.000000 -8.000000 -22.000000
v -20.000000 -6.000000 -8.000000
v -20.000000 -8.000000 -8.000000
v -32.000000 -6.000000 -22.000000
v -32.000000 -8.000000 -22.000000
v -32.000000 -6.000000 -8.000000
v -32.000000 -8.000000 -8.000000
vn -0.0000 1.0000 -0.0000
vn -0.0000 -0.0000 1.0000
vn -1.0000 -0.0000 -0.0000
vn -0.0000 -1.0000 -0.0000
vn 1.0000 -0.0000 -0.0000
vn -0.0000 -0.0000 -1.0000
vt 0.875000 0.500000
vt 0.625000 0.750000
vt 0.625000 0.500000
vt 0.375000 1.000000
vt 0.375000 0.750000
vt 0.625000 0.000000
vt 0.375000 0.250000
vt 0.375000 0.000000
vt 0.375000 0.500000
vt 0.125000 0.750000
vt 0.125000 0.500000
vt 0.625000 0.250000
vt 0.875000 0.750000
vt 0.625000 1.000000
s 0
usemtl Material.071
f 25/19/7 23/20/7 21/21/7
f 23/20/8 28/22/8 24/23/8
f 27/24/9 26/25/9 28/26/9
f 22/27/10 28/28/10 26/29/10
f 21/21/11 24/23/11 22/27/11
f 25/30/12 22/27/12 26/25/12
f 25/19/7 27/31/7 23/20/7
f 23/20/8 27/32/8 28/22/8
f 27/24/9 25/30/9 26/25/9
f 22/27/10 24/23/10 28/28/10
f 21/21/11 23/20/11 24/23/11
f 25/30/12 21/21/12 22/27/12
g Cube.039_Mesh
v -4.000000 -6.000000 -22.000000
v -4.000000 -8.000000 -22.000000
v -4.000000 -6.000000 -8.000000
v -4.000000 -8.000000 -8.000000
v -20.000000 -6.000000 -22.000000
v -20.000000 -8.000000 -22.000000
v -20.000000 -6.000000 -8.000000
v -20.000000 -8.000000 -8.000000
vn -0.0000 1.0000 -0.0000
vn -0.0000 -0.0000 1.0000
vn -1.0000 -0.0000 -0.0000
vn -0.0000 -1.0000 -0.0000
vn 1.0000 -0.0000 -0.0000
vn -0.0000 -0.0000 -1.0000
vt 0.875000 0.500000
vt 0.625000 0.750000
vt 0.625000 0.500000
vt 0.375000 1.000000
vt 0.375000 0.750000
vt 0.625000 0.000000
vt 0.375000 0.250000
vt 0.375000 0.000000
vt 0.375000 0.500000
vt 0.125000 0.750000
vt 0.125000 0.500000
vt 0.625000 0.250000
vt 0.875000 0.750000
vt 0.625000 1.000000
s 0
usemtl Material.070
f 33/33/13 31/34/13 29/35/13
f 31/34/14 36/36/14 32/37/14
f 35/38/15 34/39/15 36/40/15
f 30/41/16 36/42/16 34/43/16
f 29/35/17 32/37/17 30/41/17
f 33/44/18 30/41/18 34/39/18
f 33/33/13 35/45/13 31/34/13
f 31/34/14 35/46/14 36/36/14
f 35/38/15 33/44/15 34/39/15
f 30/41/16 32/37/16 36/42/16
f 29/35/17 31/34/17 32/37/17
f 33/44/18 29/35/18 30/41/18
g Cube.015_Mesh
v -20.000000 -6.000000 -8.000000
v -20.000000 -8.000000 -8.000000
v -20.000000 -6.000000 10.000000
v -20.000000 -8.000000 10.000000
v -32.000000 -6.000000 -8.000000
v -32.000000 -8.000000 -8.000000
v -32.000000 -6.000000 10.000000
v -32.000000 -8.000000 10.000000
vn -0.0000 1.0000 -0.0000
vn -0.0000 -0.0000 1.0000
vn -1.0000 -0.0000 -0.0000
vn -0.0000 -1.0000 -0.0000
vn 1.0000 -0.0000 -0.0000
vn -0.0000 -0.0000 -1.0000
vt 0.875000 0.500000
vt 0.625000 0.750000
vt 0.625000 0.500000
vt 0.375000 1.000000
vt 0.375000 0.750000
vt 0.625000 0.000000
vt 0.375000 0.250000
vt 0.375000 0.000000
vt 0.375000 0.500000
vt 0.125000 0.750000
vt 0.125000 0.500000
vt 0.625000 0.250000
vt 0.875000 0.750000
vt 0.625000 1.000000
s 0
usemtl Material.171
f 41/47/19 39/48/19 37/49/19
f 39/48/20 44/50/20 40/51/20
f 43/52/21 42/53/21 44/54/21
f 38/55/22 44/56/22 42/57/22
f 37/49/23 40/51/23 38/55/23
f 41/58/24 38/55/24 42/53/24
f 41/47/19 43/59/19 39/48/19
f 39/48/20 43/60/20 44/50/20
f 43/52/21 41/58/21 42/53/21
f 38/55/22 40/51/22 44/56/22
f 37/49/23 39/48/23 40/51/23
f 41/58/24 37/49/24 38/55/24
g Cube.060_Mesh
v -15.799999 2.000000 -0.200000
v -15.799999 -6.000000 -0.200000
v -15.799999 -6.000000 7.800000
v -19.799999 2.000000 -0.200000
v -19.799999 -6.000000 -0.200000
v -19.799999 -6.000000 7.800000
v -15.799999 2.000000 0.323102
v -15.799999 -5.476898 7.800000
v -15.799999 1.560183 0.323102
v -15.799999 1.560183 0.762919
v -15.799999 1.120365 0.762919
v -15.799999 1.120365 1.202737
v -15.799999 0.680547 1.202737
v -15.799999 0.680547 1.642554
v -15.799999 0.240730 1.642554
v -15.799999 0.240730 2.082372
v -15.799999 -0.199088 2.082372
v -15.799999 -0.199088 2.522189
v -15.799999 -0.638905 2.522189
v -15.799999 -0.638905 2.962007
v -15.799999 -1.078722 2.962007
v -15.799999 -1.078722 3.401824
v -15.799999 -1.518540 3.401824
v -15.799999 -1.518540 3.841642
v -15.799999 -1.958358 3.841642
v -15.799999 -1.958358 4.281460
v -15.799999 -2.398175 4.281460
v -15.799999 -2.398175 4.721277
v -15.799999 -2.837993 4.721277
v -15.799999 -2.837993 5.161095
v -15.799999 -3.277810 5.161095
v -15.799999 -3.277810 5.600912
v -15.799999 -3.717628 5.600912
v -15.799999 -3.717628 6.040730
v -15.799999 -4.157445 6.040730
v -15.799999 -4.157445 6.480547
v -15.799999 -4.597263 6.480547
v -15.799999 -4.597263 6.920365
v -15.799999 -5.037081 6.920365
v -15.799999 -5.037081 7.360183
v -15.799999 -5.476898 7.360183
v -19.799999 -5.476898 7.800000
v -19.799999 2.000000 0.323102
v -19.799999 -5.476898 7.360183
v -19.799999 -5.037081 7.360183
v -19.799999 -5.037081 6.920365
v -19.799999 -4.597263 6.920365
v -19.799999 -4.597263 6.480547
v -19.799999 -4.157445 6.480547
v -19.799999 -4.157445 6.040730
v -19.799999 -3.717628 6.040730
v -19.799999 -3.717628 5.600912
v -19.799999 -3.277810 5.600912
v -19.799999 -3.277810 5.161095
v -19.799999 -2.837993 5.161095
v -19.799999 -2.837993 4.721277
v -19.799999 -2.398175 4.721277
v -19.799999 -2.398175 4.281460
v -19.799999 -1.958358 4.281460
v -19.799999 -1.958358 3.841642
v -19.799999 -1.518540 3.841642
v -19.799999 -1.518540 3.401824
v -19.799999 -1.078722 3.401824
v -19.799999 -1.078722 2.962007
v -19.799999 -0.638905 2.962007
v -19.799999 -0.638905 2.522189
v -19.799999 -0.199088 2.522189
v -19.799999 -0.199088 2.082372
v -19.799999 0.240730 2.082372
v -19.799999 0.240730 1.642554
v -19.799999 0.680547 1.642554
v -19.799999 0.680547 1.202737
v -19.799999 1.120365 1.202737
v -19.799999 1.120365 0.762919
v -19.799999 1.560183 0.762919
v -19.799999 1.560183 0.323102
vn -0.0000 -1.0000 -0.0000
vn -0.0000 -0.0000 -1.0000
vn -0.0000 -0.0000 1.0000
vn -0.0000 1.0000 -0.0000
vn 1.0000 -0.0000 -0.0000
vn -1.0000 -0.0000 -0.0000
vt 0.375000 0.500000
vt 0.125000 0.750000
vt 0.125000 0.500000
vt 0.625000 0.250000
vt 0.375000 0.250000
vt 0.875000 0.516347
vt 0.613590 0.516347
vt 0.625000 0.516347
vt 0.875000 0.516347
vt 0.613590 0.530091
vt 0.875000 0.530091
vt 0.602179 0.530091
vt 0.875000 0.530091
vt 0.602179 0.543836
vt 0.875000 0.543836
vt 0.590769 0.543836
vt 0.875000 0.543836
vt 0.590769 0.557580
vt 0.875000 0.557580
vt 0.579359 0.557580
vt 0.875000 0.557580
vt 0.579359 0.571324
vt 0.875000 0.571324
vt 0.567948 0.571324
vt 0.567948 0.585068
vt 0.875000 0.585068
vt 0.556538 0.585068
vt 0.875000 0.585068
vt 0.556538 0.598813
vt 0.875000 0.598813
vt 0.545128 0.598813
vt 0.875000 0.598813
vt 0.545128 0.612557
vt 0.875000 0.612557
vt 0.533717 0.612557
vt 0.875000 0.612557
vt 0.533717 0.626301
vt 0.875000 0.626301
vt 0.522307 0.647307
vt 0.625000 1.000000
vt 0.501301 0.658717
vt 0.501301 1.000000
vt 0.487557 0.658717
vt 0.487557 1.000000
vt 0.487557 0.670127
vt 0.487557 1.000000
vt 0.473813 0.670127
vt 0.473813 1.000000
vt 0.473813 0.681538
vt 0.460068 0.681538
vt 0.460068 1.000000
vt 0.460068 0.692948
vt 0.460068 1.000000
vt 0.446324 0.692948
vt 0.446324 1.000000
vt 0.446324 0.704359
vt 0.446324 1.000000
vt 0.432580 0.704359
vt 0.432580 1.000000
vt 0.432580 0.715769
vt 0.432580 1.000000
vt 0.418836 0.715769
vt 0.418836 1.000000
vt 0.418836 0.727179
vt 0.405091 0.727179
vt 0.405091 1.000000
vt 0.405091 0.738590
vt 0.405091 1.000000
vt 0.391347 0.738590
vt 0.391347 1.000000
vt 0.391347 0.750000
vt 0.375000 0.750000
vt 0.375000 1.000000
vt 0.875000 0.500000
vt 0.625000 0.500000
vt 0.446324 0.068722
vt 0.570023 0.192420
vt 0.875000 0.750000
vt 0.391347 1.000000
vt 0.375000 0.000000
vt 0.391347 0.000000
vt 0.391347 0.013744
vt 0.405091 0.013744
vt 0.405091 0.027489
vt 0.625000 0.233653
vt 0.597511 0.219909
vt 0.611256 0.219909
vt 0.611256 0.233653
vt 0.418836 0.027489
vt 0.418835 0.041233
vt 0.432580 0.041233
vt 0.432580 0.054977
vt 0.446324 0.054977
vt 0.460068 0.068722
vt 0.460068 0.082466
vt 0.473813 0.082466
vt 0.473813 0.096210
vt 0.487557 0.096210
vt 0.487557 0.109954
vt 0.501301 0.109954
vt 0.501301 0.123699
vt 0.515046 0.123699
vt 0.515046 0.137443
vt 0.528790 0.137443
vt 0.528790 0.151187
vt 0.542534 0.151187
vt 0.542534 0.164932
vt 0.556279 0.164932
vt 0.556278 0.178676
vt 0.570023 0.178676
vt 0.583767 0.192420
vt 0.583767 0.206164
vt 0.597511 0.206164
s 0
usemtl Material.014
f 46/61/25 50/62/25 49/63/25
f 48/64/26 46/61/26 49/65/26
f 87/66/27 53/67/27 51/68/27
f 120/69/28 54/70/28 53/67/28
f 119/71/27 55/72/27 54/70/27
f 118/73/28 56/74/28 55/72/28
f 117/75/27 57/76/27 56/74/27
f 116/77/28 58/78/28 57/76/28
f 115/79/27 59/80/27 58/78/27
f 114/81/28 60/82/28 59/80/28
f 113/83/27 61/84/27 60/82/27
f 112/83/28 62/85/28 61/84/28
f 111/86/27 63/87/27 62/85/27
f 110/88/28 64/89/28 63/87/28
f 109/90/27 65/91/27 64/89/27
f 108/92/28 66/93/28 65/91/28
f 107/94/27 67/95/27 66/93/27
f 106/96/28 68/97/28 67/95/28
f 105/98/27 69/99/27 68/97/27
f 104/100/28 70/101/28 69/99/28
f 103/102/27 71/103/27 70/101/27
f 102/104/28 72/105/28 71/103/28
f 101/106/27 73/107/27 72/105/27
f 100/108/28 74/109/28 73/107/28
f 99/108/27 75/110/27 74/109/27
f 98/111/28 76/112/28 75/110/28
f 97/113/27 77/114/27 76/112/27
f 96/115/28 78/116/28 77/114/28
f 95/117/27 79/118/27 78/116/27
f 94/119/28 80/120/28 79/118/28
f 93/121/27 81/122/27 80/120/27
f 92/123/28 82/124/28 81/122/28
f 91/123/27 83/125/27 82/124/27
f 90/126/28 84/127/28 83/125/28
f 89/128/27 85/129/27 84/127/27
f 88/130/28 52/131/28 85/129/28
f 69/99/29 73/107/29 47/132/29
f 52/131/27 50/133/27 47/132/27
f 48/134/28 51/68/28 45/135/28
f 96/136/30 114/137/30 49/65/30
f 46/61/25 47/132/25 50/62/25
f 48/64/26 45/135/26 46/61/26
f 87/66/27 120/69/27 53/67/27
f 120/69/28 119/71/28 54/70/28
f 119/71/27 118/73/27 55/72/27
f 118/73/28 117/75/28 56/74/28
f 117/75/27 116/77/27 57/76/27
f 116/77/28 115/79/28 58/78/28
f 115/79/27 114/81/27 59/80/27
f 114/81/28 113/83/28 60/82/28
f 113/83/27 112/83/27 61/84/27
f 112/83/28 111/86/28 62/85/28
f 111/86/27 110/88/27 63/87/27
f 110/88/28 109/90/28 64/89/28
f 109/90/27 108/92/27 65/91/27
f 108/92/28 107/94/28 66/93/28
f 107/94/27 106/96/27 67/95/27
f 106/96/28 105/98/28 68/97/28
f 105/98/27 104/138/27 69/99/27
f 104/100/28 103/102/28 70/101/28
f 103/102/27 102/104/27 71/103/27
f 102/104/28 101/106/28 72/105/28
f 101/106/27 100/108/27 73/107/27
f 100/108/28 99/108/28 74/109/28
f 99/108/27 98/111/27 75/110/27
f 98/111/28 97/113/28 76/112/28
f 97/113/27 96/115/27 77/114/27
f 96/115/28 95/117/28 78/116/28
f 95/117/27 94/119/27 79/118/27
f 94/119/28 93/121/28 80/120/28
f 93/121/27 92/123/27 81/122/27
f 92/123/28 91/123/28 82/124/28
f 91/123/27 90/126/27 83/125/27
f 90/126/28 89/128/28 84/127/28
f 89/128/27 88/130/27 85/129/27
f 88/130/28 86/139/28 52/131/28
f 47/132/29 46/61/29 45/135/29
f 45/135/29 51/68/29 53/67/29
f 53/67/29 54/70/29 55/72/29
f 55/72/29 56/74/29 57/76/29
f 57/76/29 58/78/29 59/80/29
f 59/80/29 60/82/29 61/84/29
f 61/84/29 62/85/29 63/87/29
f 63/87/29 64/89/29 65/91/29
f 65/91/29 66/93/29 67/95/29
f 67/95/29 68/97/29 69/99/29
f 69/99/29 70/101/29 71/103/29
f 71/103/29 72/105/29 73/107/29
f 73/107/29 74/109/29 75/110/29
f 75/110/29 76/112/29 77/114/29
f 77/114/29 78/116/29 79/118/29
f 79/118/29 80/120/29 81/122/29
f 81/122/29 82/124/29 83/125/29
f 83/125/29 84/127/29 85/129/29
f 85/129/29 52/131/29 47/132/29
f 47/132/29 45/135/29 53/67/29
f 53/67/28 55/72/28 57/76/28
f 47/132/29 53/67/29 57/76/29
f 83/125/29 85/129/29 47/132/29
f 77/114/29 79/118/29 81/122/29
f 81/122/29 83/125/29 47/132/29
f 47/132/29 57/76/29 59/80/29
f 61/84/29 63/87/29 65/91/29
f 47/132/29 59/80/29 61/84/29
f 77/114/29 81/122/29 47/132/29
f 73/107/29 75/110/29 77/114/29
f 69/99/29 71/103/29 73/107/29
f 65/91/29 67/95/29 69/99/29
f 47/132/29 61/84/29 65/91/29
f 73/107/29 77/114/29 47/132/29
f 47/132/29 65/91/29 69/99/29
f 52/131/27 86/139/27 50/133/27
f 48/134/28 87/66/28 51/68/28
f 49/65/30 50/140/30 86/141/30
f 88/142/30 89/143/30 90/144/30
f 49/65/30 86/141/30 88/142/30
f 87/145/30 48/64/30 49/65/30
f 118/146/30 119/147/30 120/148/30
f 120/148/30 87/145/30 49/65/30
f 49/65/30 88/142/30 90/144/30
f 90/144/30 91/149/30 92/150/30
f 92/150/30 93/151/30 94/152/30
f 94/152/30 95/153/30 96/136/30
f 96/136/30 97/154/30 98/155/30
f 98/155/30 99/156/30 100/157/30
f 100/157/30 101/158/30 102/159/30
f 102/159/30 103/160/30 104/161/30
f 104/161/30 105/162/30 106/163/30
f 106/163/30 107/164/30 108/165/30
f 108/165/30 109/166/30 110/167/30
f 110/167/30 111/168/30 112/169/30
f 112/169/30 113/170/30 114/137/30
f 114/137/30 115/171/30 116/172/30
f 116/172/30 117/173/30 118/146/30
f 118/146/30 120/148/30 49/65/30
f 49/65/30 90/144/30 92/150/30
f 92/150/30 94/152/30 96/136/30
f 96/136/30 98/155/30 100/157/30
f 100/157/30 102/159/30 104/161/30
f 104/161/30 106/163/30 108/165/30
f 108/165/30 110/167/30 112/169/30
f 108/165/29 112/169/29 114/137/29
f 96/136/30 100/157/30 104/161/30
f 104/161/30 108/165/30 114/137/30
f 116/172/30 118/146/30 49/65/30
f 96/136/30 104/161/30 114/137/30
f 114/137/30 116/172/30 49/65/30
f 49/65/30 92/150/30 96/136/30
