# Blender 4.5.3 LTS
# www.blender.org
mtllib house_basement_ceiling.mtl
g Cube.041_Mesh
v -4.000000 0.000000 -8.000000
v -4.000000 -0.200000 -8.000000
v -4.000000 0.000000 8.000000
v -4.000000 -0.200000 8.000000
v -20.000000 0.000000 -8.000000
v -20.000000 -0.200000 -8.000000
v -20.000000 0.000000 8.000000
v -20.000000 -0.200000 8.000000
v -15.799999 0.000000 -0.200000
v -19.799999 0.000000 -0.200000
v -19.799999 0.000000 7.800000
v -15.799999 0.000000 7.800000
v -19.799999 -0.200000 7.800000
v -19.799999 -0.200000 -0.200000
v -15.799999 -0.200000 -0.200000
v -15.799999 -0.200000 7.800000
vn -0.0000 1.0000 -0.0000
vn -0.0000 -0.0000 1.0000
vn -1.0000 -0.0000 -0.0000
vn -0.0000 -1.0000 -0.0000
vn 1.0000 -0.0000 -0.0000
vn -0.0000 -0.0000 -1.0000
vt 0.875000 0.750000
vt 0.871875 0.621875
vt 0.875000 0.500000
vt 0.625000 0.750000
vt 0.809375 0.621875
vt 0.809375 0.746875
vt 0.375000 1.000000
vt 0.375000 0.750000
vt 0.625000 0.000000
vt 0.375000 0.250000
vt 0.375000 0.000000
vt 0.125000 0.750000
vt 0.128125 0.621875
vt 0.128125 0.746875
vt 0.375000 0.500000
vt 0.190625 0.621875
vt 0.625000 0.500000
vt 0.625000 0.250000
vt 0.543310 0.750000
vt 0.459977 1.000000
vt 0.543310 1.000000
vt 0.543310 0.250000
vt 0.459977 0.000000
vt 0.459977 0.250000
vt 0.543310 0.500000
vt 0.459977 0.750000
vt 0.459977 0.500000
vt 0.871875 0.746875
vt 0.625000 1.000000
vt 0.125000 0.500000
vt 0.190625 0.746875
vt 0.543310 0.000000
s 0
usemtl Material.064
f 7/1/1 10/2/1 5/3/1
f 3/4/1 9/5/1 12/6/1
f 3/4/2 8/7/2 4/8/2
f 7/9/3 6/10/3 8/11/3
f 8/12/4 14/13/4 13/14/4
f 2/15/4 4/8/4 15/16/4
f 1/17/5 4/8/5 2/15/5
f 5/18/6 2/15/6 6/10/6
f 12/19/6 13/20/6 11/21/6
f 10/22/5 13/23/5 14/24/5
f 9/25/3 16/26/3 12/19/3
f 9/25/2 14/24/2 15/27/2
f 7/1/1 11/28/1 10/2/1
f 12/6/1 11/28/1 7/1/1
f 3/4/1 1/17/1 5/3/1
f 5/3/1 10/2/1 9/5/1
f 12/6/1 7/1/1 3/4/1
f 3/4/1 5/3/1 9/5/1
f 3/4/2 7/29/2 8/7/2
f 7/9/3 5/18/3 6/10/3
f 8/12/4 6/30/4 14/13/4
f 14/13/4 6/30/4 2/15/4
f 4/8/4 8/12/4 13/14/4
f 4/8/4 13/14/4 16/31/4
f 15/16/4 14/13/4 2/15/4
f 4/8/4 16/31/4 15/16/4
f 1/17/5 3/4/5 4/8/5
f 5/18/6 1/17/6 2/15/6
f 12/19/6 16/26/6 13/20/6
f 10/22/5 11/32/5 13/23/5
f 9/25/3 15/27/3 16/26/3
f 9/25/2 10/22/2 14/24/2
g Cube.045_Mesh
v -4.000000 0.000000 8.000000
v -4.000000 -0.200000 8.000000
v -4.000000 0.000000 16.000000
v -4.000000 -0.200000 16.000000
v -20.000000 0.000000 8.000000
v -20.000000 -0.200000 8.000000
v -20.000000 0.000000 16.000000
v -20.000000 -0.200000 16.000000
vn -0.0000 1.0000 -0.0000
vn -0.0000 -0.0000 1.0000
vn -1.0000 -0.0000 -0.0000
vn -0.0000 -1.0000 -0.0000
vn 1.0000 -0.0000 -0.0000
vn -0.0000 -0.0000 -1.0000
vt 0.875000 0.500000
vt 0.625000 0.750000
vt 0.625000 0.500000
vt 0.375000 1.000000
vt 0.375000 0.750000
vt 0.625000 0.000000
vt 0.375000 0.250000
vt 0.375000 0.000000
vt 0.375000 0.500000
vt 0.125000 0.750000
vt 0.125000 0.500000
vt 0.625000 0.250000
vt 0.875000 0.750000
vt 0.625000 1.000000
s 0
usemtl Material.065
f 21/33/7 19/34/7 17/35/7
f 19/34/8 24/36/8 20/37/8
f 23/38/9 22/39/9 24/40/9
f 18/41/10 24/42/10 22/43/10
f 17/35/11 20/37/11 18/41/11
f 21/44/12 18/41/12 22/39/12
f 21/33/7 23/45/7 19/34/7
f 19/34/8 23/46/8 24/36/8
f 23/38/9 21/44/9 22/39/9
f 18/41/10 20/37/10 24/42/10
f 17/35/11 19/34/11 20/37/11
f 21/44/12 17/35/12 18/41/12
g Cube.061_Mesh
v -20.000000 0.000000 -8.000000
v -20.000000 -0.200000 -8.000000
v -20.000000 0.000000 10.000000
v -20.000000 -0.200000 10.000000
v -32.000000 0.000000 -8.000000
v -32.000000 -0.200000 -8.000000
v -32.000000 0.000000 10.000000
v -32.000000 -0.200000 10.000000
vn -0.0000 1.0000 -0.0000
vn -0.0000 -0.0000 1.0000
vn -1.0000 -0.0000 -0.0000
vn -0.0000 -1.0000 -0.0000
vn 1.0000 -0.0000 -0.0000
vn -0.0000 -0.0000 -1.0000
vt 0.875000 0.500000
vt 0.625000 0.750000
vt 0.625000 0.500000
vt 0.375000 1.000000
vt 0.375000 0.750000
vt 0.625000 0.000000
vt 0.375000 0.250000
vt 0.375000 0.000000
vt 0.375000 0.500000
vt 0.125000 0.750000
vt 0.125000 0.500000
vt 0.625000 0.250000
vt 0.875000 0.750000
vt 0.625000 1.000000
s 0
usemtl Material.066
f 29/47/13 27/48/13 25/49/13
f 27/48/14 32/50/14 28/51/14
f 31/52/15 30/53/15 32/54/15
f 26/55/16 32/56/16 30/57/16
f 25/49/17 28/51/17 26/55/17
f 29/58/18 26/55/18 30/53/18
f 29/47/13 31/59/13 27/48/13
f 27/48/14 31/60/14 32/50/14
f 31/52/15 29/58/15 30/53/15
f 26/55/16 28/51/16 32/56/16
f 25/49/17 27/48/17 28/51/17
f 29/58/18 25/49/18 26/55/18
g Cube.063_Mesh
v -4.000000 0.000000 -22.000000
v -4.000000 -0.200000 -22.000000
v -4.000000 0.000000 -8.000000
v -4.000000 -0.200000 -8.000000
v -20.000000 0.000000 -22.000000
v -20.000000 -0.200000 -22.000000
v -20.000000 0.000000 -8.000000
v -20.000000 -0.200000 -8.000000
vn -0.0000 1.0000 -0.0000
vn -0.0000 -0.0000 1.0000
vn -1.0000 -0.0000 -0.0000
vn -0.0000 -1.0000 -0.0000
vn 1.0000 -0.0000 -0.0000
vn -0.0000 -0.0000 -1.0000
vt 0.875000 0.500000
vt 0.625000 0.750000
vt 0.625000 0.500000
vt 0.375000 1.000000
vt 0.375000 0.750000
vt 0.625000 0.000000
vt 0.375000 0.250000
vt 0.375000 0.000000
vt 0.375000 0.500000
vt 0.125000 0.750000
vt 0.125000 0.500000
vt 0.625000 0.250000
vt 0.875000 0.750000
vt 0.625000 1.000000
s 0
usemtl Material.067
f 37/61/19 35/62/19 33/63/19
f 35/62/20 40/64/20 36/65/20
f 39/66/21 38/67/21 40/68/21
f 34/69/22 40/70/22 38/71/22
f 33/63/23 36/65/23 34/69/23
f 37/72/24 34/69/24 38/67/24
f 37/61/19 39/73/19 35/62/19
f 35/62/20 39/74/20 40/64/20
f 39/66/21 37/72/21 38/67/21
f 34/69/22 36/65/22 40/70/22
f 33/63/23 35/62/23 36/65/23
f 37/72/24 33/63/24 34/69/24
g Cube.064_Mesh
v -20.000000 0.000000 -22.000000
v -20.000000 -0.200000 -22.000000
v -20.000000 0.000000 -8.000000
v -20.000000 -0.200000 -8.000000
v -32.000000 0.000000 -22.000000
v -32.000000 -0.200000 -22.000000
v -32.000000 0.000000 -8.000000
v -32.000000 -0.200000 -8.000000
vn -0.0000 1.0000 -0.0000
vn -0.0000 -0.0000 1.0000
vn -1.0000 -0.0000 -0.0000
vn -0.0000 -1.0000 -0.0000
vn 1.0000 -0.0000 -0.0000
vn -0.0000 -0.0000 -1.0000
vt 0.875000 0.500000
vt 0.625000 0.750000
vt 0.625000 0.500000
vt 0.375000 1.000000
vt 0.375000 0.750000
vt 0.625000 0.000000
vt 0.375000 0.250000
vt 0.375000 0.000000
vt 0.375000 0.500000
vt 0.125000 0.750000
vt 0.125000 0.500000
vt 0.625000 0.250000
vt 0.875000 0.750000
vt 0.625000 1.000000
s 0
usemtl Material.068
f 45/75/25 43/76/25 41/77/25
f 43/76/26 48/78/26 44/79/26
f 47/80/27 46/81/27 48/82/27
f 42/83/28 48/84/28 46/85/28
f 41/77/29 44/79/29 42/83/29
f 45/86/30 42/83/30 46/81/30
f 45/75/25 47/87/25 43/76/25
f 43/76/26 47/88/26 48/78/26
f 47/80/27 45/86/27 46/81/27
f 42/83/28 44/79/28 48/84/28
f 41/77/29 43/76/29 44/79/29
f 45/86/30 41/77/30 42/83/30
