# Blender 4.5.3 LTS
# www.blender.org
mtllib house_staircases_stairs.mtl
g Cube.065_Mesh
v -20.200001 8.000000 -23.000000
v -20.200001 2.000000 -15.000000
v -24.200001 8.000000 -23.000000
v -24.200001 2.000000 -15.000000
v -20.200001 8.000000 -22.434166
v -20.200001 2.424376 -15.000000
v -20.200001 7.651524 -22.434166
v -20.200001 7.651524 -21.969530
v -20.200001 7.303047 -21.969530
v -20.200001 7.303047 -21.504894
v -20.200001 6.954570 -21.504894
v -20.200001 6.954570 -21.040258
v -20.200001 6.606094 -21.040258
v -20.200001 6.606094 -20.575624
v -20.200001 6.257618 -20.575624
v -20.200001 6.257618 -20.110989
v -20.200001 5.909141 -20.110989
v -20.200001 5.909141 -19.646353
v -20.200001 5.560665 -19.646353
v -20.200001 5.560665 -19.181717
v -20.200001 5.212188 -19.181717
v -20.200001 5.212188 -18.717083
v -20.200001 4.863711 -18.717083
v -20.200001 4.863711 -18.252447
v -20.200001 4.515235 -18.252447
v -20.200001 4.515235 -17.787811
v -20.200001 4.166759 -17.787811
v -20.200001 4.166759 -17.323177
v -20.200001 3.818282 -17.323177
v -20.200001 3.818282 -16.858541
v -20.200001 3.469806 -16.858541
v -20.200001 3.469806 -16.393906
v -20.200001 3.121329 -16.393906
v -20.200001 3.121329 -15.929271
v -20.200001 2.772853 -15.929271
v -20.200001 2.772853 -15.464636
v -20.200001 2.424376 -15.464636
v -24.200001 2.424376 -15.000000
v -24.200001 8.000000 -22.434166
v -24.200001 2.424376 -15.464636
v -24.200001 2.772853 -15.464636
v -24.200001 2.772853 -15.929271
v -24.200001 3.121329 -15.929271
v -24.200001 3.121329 -16.393906
v -24.200001 3.469806 -16.393906
v -24.200001 3.469806 -16.858541
v -24.200001 3.818282 -16.858541
v -24.200001 3.818282 -17.323177
v -24.200001 4.166759 -17.323177
v -24.200001 4.166759 -17.787811
v -24.200001 4.515235 -17.787811
v -24.200001 4.515235 -18.252447
v -24.200001 4.863711 -18.252447
v -24.200001 4.863711 -18.717083
v -24.200001 5.212188 -18.717083
v -24.200001 5.212188 -19.181717
v -24.200001 5.560665 -19.181717
v -24.200001 5.560665 -19.646353
v -24.200001 5.909141 -19.646353
v -24.200001 5.909141 -20.110989
v -24.200001 6.257618 -20.110989
v -24.200001 6.257618 -20.575624
v -24.200001 6.606094 -20.575624
v -24.200001 6.606094 -21.040258
v -24.200001 6.954570 -21.040258
v -24.200001 6.954570 -21.504894
v -24.200001 7.303047 -21.504894
v -24.200001 7.303047 -21.969530
v -24.200001 7.651524 -21.969530
v -24.200001 7.651524 -22.434166
v -20.200001 2.000000 -16.666668
v -24.200001 2.000000 -16.666668
v -24.200001 6.750000 -23.000000
v -20.200001 6.750000 -23.000000
vn -0.0000 -1.0000 -0.0000
vn -0.0000 -0.0000 -1.0000
vn -0.0000 -0.0000 1.0000
vn -0.0000 1.0000 -0.0000
vn 1.0000 -0.0000 -0.0000
vn -1.0000 -0.0000 -0.0000
vn -0.0000 -0.8000 -0.6000
vt 0.125000 0.750000
vt 0.375000 0.697917
vt 0.375000 0.750000
vt 0.625000 0.250000
vt 0.572917 0.500000
vt 0.572917 0.250000
vt 0.875000 0.517682
vt 0.613046 0.517682
vt 0.625000 0.517682
vt 0.613046 0.532202
vt 0.875000 0.532202
vt 0.601091 0.532202
vt 0.601091 0.546722
vt 0.875000 0.546722
vt 0.589137 0.546722
vt 0.875000 0.546722
vt 0.589137 0.561242
vt 0.875000 0.561242
vt 0.577183 0.561242
vt 0.875000 0.561242
vt 0.577183 0.575762
vt 0.875000 0.575762
vt 0.565229 0.575762
vt 0.565229 0.590282
vt 0.875000 0.590282
vt 0.553274 0.590282
vt 0.875000 0.590282
vt 0.553274 0.604802
vt 0.875000 0.604801
vt 0.541320 0.604801
vt 0.875000 0.604801
vt 0.541320 0.619321
vt 0.875000 0.619321
vt 0.529366 0.619321
vt 0.529366 0.654366
vt 0.625000 1.000000
vt 0.494321 0.654366
vt 0.494321 1.000000
vt 0.494321 0.666320
vt 0.479801 0.666320
vt 0.479801 1.000000
vt 0.479802 0.678274
vt 0.479801 1.000000
vt 0.465282 0.678274
vt 0.465282 1.000000
vt 0.465282 0.690229
vt 0.465282 1.000000
vt 0.450762 0.690229
vt 0.450762 1.000000
vt 0.450762 0.702183
vt 0.436242 0.702183
vt 0.436242 1.000000
vt 0.436242 0.714137
vt 0.436242 1.000000
vt 0.421722 0.714137
vt 0.421722 1.000000
vt 0.421722 0.726091
vt 0.421722 1.000000
vt 0.407202 0.726091
vt 0.407202 1.000000
vt 0.407202 0.738046
vt 0.392682 0.738046
vt 0.392682 1.000000
vt 0.392682 0.750000
vt 0.375000 1.000000
vt 0.875000 0.500000
vt 0.625000 0.500000
vt 0.436242 0.058079
vt 0.508841 0.130679
vt 0.523361 0.145199
vt 0.593750 1.000000
vt 0.395833 0.744558
vt 0.395833 1.000000
vt 0.125000 0.697917
vt 0.875000 0.750000
vt 0.392682 1.000000
vt 0.625000 0.232318
vt 0.375000 0.052083
vt 0.375000 0.000000
vt 0.392682 0.000000
vt 0.392682 0.014520
vt 0.407202 0.014520
vt 0.407202 0.029040
vt 0.421722 0.029040
vt 0.421722 0.043560
vt 0.436242 0.043560
vt 0.450762 0.058079
vt 0.450762 0.072599
vt 0.465282 0.072599
vt 0.465282 0.087119
vt 0.479802 0.087119
vt 0.479801 0.101639
vt 0.494321 0.101639
vt 0.494321 0.116159
vt 0.508841 0.116159
vt 0.523361 0.130679
vt 0.537881 0.145199
vt 0.537881 0.159718
vt 0.552401 0.159718
vt 0.552401 0.174238
vt 0.566921 0.174238
vt 0.566921 0.188758
vt 0.581441 0.188758
vt 0.581440 0.203278
vt 0.595960 0.203278
vt 0.595960 0.217798
vt 0.610480 0.217798
vt 0.610480 0.232318
vt 0.593750 0.692862
s 0
usemtl Material.005
f 4/1/1 71/2/1 2/3/1
f 3/4/2 74/5/2 73/6/2
f 39/7/3 7/8/3 5/9/3
f 70/7/4 8/10/4 7/8/4
f 69/11/3 9/12/3 8/10/3
f 68/11/4 10/13/4 9/12/4
f 67/14/3 11/15/3 10/13/3
f 66/16/4 12/17/4 11/15/4
f 65/18/3 13/19/3 12/17/3
f 64/20/4 14/21/4 13/19/4
f 63/22/3 15/23/3 14/21/3
f 62/22/4 16/24/4 15/23/4
f 61/25/3 17/26/3 16/24/3
f 60/27/4 18/28/4 17/26/4
f 59/29/3 19/30/3 18/28/3
f 58/31/4 20/32/4 19/30/4
f 57/33/3 21/34/3 20/32/3
f 56/33/4 22/35/4 21/34/4
f 55/36/3 23/37/3 22/35/3
f 54/38/4 24/39/4 23/37/4
f 53/38/3 25/40/3 24/39/3
f 52/41/4 26/42/4 25/40/4
f 51/43/3 27/44/3 26/42/3
f 50/45/4 28/46/4 27/44/4
f 49/47/3 29/48/3 28/46/3
f 48/49/4 30/50/4 29/48/4
f 47/49/3 31/51/3 30/50/3
f 46/52/4 32/53/4 31/51/4
f 45/54/3 33/55/3 32/53/3
f 44/56/4 34/57/4 33/55/4
f 43/58/3 35/59/3 34/57/3
f 42/60/4 36/61/4 35/59/4
f 41/60/3 37/62/3 36/61/3
f 40/63/4 6/64/4 37/62/4
f 74/5/5 19/30/5 21/34/5
f 6/64/3 4/65/3 2/3/3
f 3/66/4 5/9/4 1/67/4
f 46/68/6 56/69/6 58/70/6
f 73/71/7 71/72/7 72/73/7
f 4/1/1 72/74/1 71/2/1
f 3/4/2 1/67/2 74/5/2
f 39/7/3 70/7/3 7/8/3
f 70/7/4 69/11/4 8/10/4
f 69/11/3 68/11/3 9/12/3
f 68/11/4 67/14/4 10/13/4
f 67/14/3 66/16/3 11/15/3
f 66/16/4 65/18/4 12/17/4
f 65/18/3 64/20/3 13/19/3
f 64/20/4 63/22/4 14/21/4
f 63/22/3 62/22/3 15/23/3
f 62/22/4 61/25/4 16/24/4
f 61/25/3 60/27/3 17/26/3
f 60/27/4 59/29/4 18/28/4
f 59/29/3 58/31/3 19/30/3
f 58/31/4 57/33/4 20/32/4
f 57/33/3 56/33/3 21/34/3
f 56/33/4 55/75/4 22/35/4
f 55/36/3 54/38/3 23/37/3
f 54/38/4 53/38/4 24/39/4
f 53/38/3 52/41/3 25/40/3
f 52/41/4 51/43/4 26/42/4
f 51/43/3 50/45/3 27/44/3
f 50/45/4 49/47/4 28/46/4
f 49/47/3 48/49/3 29/48/3
f 48/49/4 47/49/4 30/50/4
f 47/49/3 46/52/3 31/51/3
f 46/52/4 45/54/4 32/53/4
f 45/54/3 44/56/3 33/55/3
f 44/56/4 43/58/4 34/57/4
f 43/58/3 42/60/3 35/59/3
f 42/60/4 41/60/4 36/61/4
f 41/60/3 40/63/3 37/62/3
f 40/63/4 38/76/4 6/64/4
f 37/62/5 6/64/5 2/3/5
f 2/3/5 71/2/5 74/5/5
f 74/5/5 1/67/5 5/9/5
f 7/8/5 8/10/5 9/12/5
f 74/5/5 5/9/5 7/8/5
f 37/62/5 2/3/5 74/5/5
f 35/59/5 36/61/5 37/62/5
f 33/55/5 34/57/5 35/59/5
f 31/51/5 32/53/5 33/55/5
f 29/48/5 30/50/5 31/51/5
f 27/44/5 28/46/5 29/48/5
f 25/40/5 26/42/5 27/44/5
f 23/37/5 24/39/5 25/40/5
f 21/34/5 22/35/5 23/37/5
f 19/30/5 20/32/5 21/34/5
f 17/26/5 18/28/5 19/30/5
f 15/23/5 16/24/5 17/26/5
f 13/19/5 14/21/5 15/23/5
f 11/15/5 12/17/5 13/19/5
f 9/12/5 10/13/5 11/15/5
f 74/5/5 7/8/5 9/12/5
f 35/59/5 37/62/5 74/5/5
f 31/51/6 33/55/6 35/59/6
f 27/44/5 29/48/5 31/51/5
f 25/40/5 27/44/5 31/51/5
f 31/51/5 35/59/5 74/5/5
f 74/5/5 9/12/5 11/15/5
f 13/19/5 15/23/5 17/26/5
f 74/5/5 11/15/5 13/19/5
f 25/40/5 31/51/5 74/5/5
f 23/37/5 25/40/5 74/5/5
f 74/5/5 13/19/5 17/26/5
f 74/5/5 17/26/5 19/30/5
f 21/34/5 23/37/5 74/5/5
f 6/64/3 38/76/3 4/65/3
f 3/66/4 39/7/4 5/9/4
f 39/77/6 3/4/6 73/6/6
f 73/6/6 72/78/6 4/79/6
f 4/79/6 38/80/6 40/81/6
f 40/81/6 41/82/6 42/83/6
f 42/83/6 43/84/6 44/85/6
f 44/85/6 45/86/6 46/68/6
f 46/68/6 47/87/6 48/88/6
f 48/88/6 49/89/6 50/90/6
f 50/90/6 51/91/6 52/92/6
f 52/92/6 53/93/6 54/94/6
f 54/94/6 55/95/6 56/69/6
f 56/69/6 57/96/6 58/70/6
f 58/70/6 59/97/6 60/98/6
f 60/98/6 61/99/6 62/100/6
f 62/100/6 63/101/6 64/102/6
f 64/102/6 65/103/6 66/104/6
f 66/104/6 67/105/6 68/106/6
f 68/106/6 69/107/6 70/108/6
f 70/108/6 39/77/6 73/6/6
f 73/6/6 4/79/6 40/81/6
f 42/83/5 44/85/5 46/68/5
f 73/6/6 40/81/6 42/83/6
f 68/106/6 70/108/6 73/6/6
f 64/102/4 66/104/4 68/106/4
f 60/98/6 62/100/6 64/102/6
f 58/70/6 60/98/6 64/102/6
f 64/102/6 68/106/6 73/6/6
f 73/6/6 42/83/6 46/68/6
f 46/68/6 48/88/6 50/90/6
f 46/68/6 50/90/6 52/92/6
f 64/102/6 73/6/6 46/68/6
f 58/70/6 64/102/6 46/68/6
f 46/68/6 52/92/6 54/94/6
f 46/68/6 54/94/6 56/69/6
f 73/71/7 74/109/7 71/72/7
g Cube.060_Mesh
v -15.799999 2.000000 -0.200000
v -15.799999 -6.000000 -0.200000
v -15.799999 -6.000000 7.800000
v -19.799999 2.000000 -0.200000
v -19.799999 -6.000000 -0.200000
v -19.799999 -6.000000 7.800000
v -15.799999 2.000000 0.323102
v -15.799999 -5.476898 7.800000
v -15.799999 1.560183 0.323102
v -15.799999 1.560183 0.762919
v -15.799999 1.120365 0.762919
v -15.799999 1.120365 1.202737
v -15.799999 0.680547 1.202737
v -15.799999 0.680547 1.642554
v -15.799999 0.240730 1.642554
v -15.799999 0.240730 2.082372
v -15.799999 -0.199088 2.082372
v -15.799999 -0.199088 2.522189
v -15.799999 -0.638905 2.522189
v -15.799999 -0.638905 2.962007
v -15.799999 -1.078722 2.962007
v -15.799999 -1.078722 3.401824
v -15.799999 -1.518540 3.401824
v -15.799999 -1.518540 3.841642
v -15.799999 -1.958358 3.841642
v -15.799999 -1.958358 4.281460
v -15.799999 -2.398175 4.281460
v -15.799999 -2.398175 4.721277
v -15.799999 -2.837993 4.721277
v -15.799999 -2.837993 5.161095
v -15.799999 -3.277810 5.161095
v -15.799999 -3.277810 5.600912
v -15.799999 -3.717628 5.600912
v -15.799999 -3.717628 6.040730
v -15.799999 -4.157445 6.040730
v -15.799999 -4.157445 6.480547
v -15.799999 -4.597263 6.480547
v -15.799999 -4.597263 6.920365
v -15.799999 -5.037081 6.920365
v -15.799999 -5.037081 7.360183
v -15.799999 -5.476898 7.360183
v -19.799999 -5.476898 7.800000
v -19.799999 2.000000 0.323102
v -19.799999 -5.476898 7.360183
v -19.799999 -5.037081 7.360183
v -19.799999 -5.037081 6.920365
v -19.799999 -4.597263 6.920365
v -19.799999 -4.597263 6.480547
v -19.799999 -4.157445 6.480547
v -19.799999 -4.157445 6.040730
v -19.799999 -3.717628 6.040730
v -19.799999 -3.717628 5.600912
v -19.799999 -3.277810 5.600912
v -19.799999 -3.277810 5.161095
v -19.799999 -2.837993 5.161095
v -19.799999 -2.837993 4.721277
v -19.799999 -2.398175 4.721277
v -19.799999 -2.398175 4.281460
v -19.799999 -1.958358 4.281460
v -19.799999 -1.958358 3.841642
v -19.799999 -1.518540 3.841642
v -19.799999 -1.518540 3.401824
v -19.799999 -1.078722 3.401824
v -19.799999 -1.078722 2.962007
v -19.799999 -0.638905 2.962007
v -19.799999 -0.638905 2.522189
v -19.799999 -0.199088 2.522189
v -19.799999 -0.199088 2.082372
v -19.799999 0.240730 2.082372
v -19.799999 0.240730 1.642554
v -19.799999 0.680547 1.642554
v -19.799999 0.680547 1.202737
v -19.799999 1.120365 1.202737
v -19.799999 1.120365 0.762919
v -19.799999 1.560183 0.762919
v -19.799999 1.560183 0.323102
vn -0.0000 -1.0000 -0.0000
vn -0.0000 -0.0000 -1.0000
vn -0.0000 -0.0000 1.0000
vn -0.0000 1.0000 -0.0000
vn 1.0000 -0.0000 -0.0000
vn -1.0000 -0.0000 -0.0000
vt 0.375000 0.500000
vt 0.125000 0.750000
vt 0.125000 0.500000
vt 0.625000 0.250000
vt 0.375000 0.250000
vt 0.875000 0.516347
vt 0.613590 0.516347
vt 0.625000 0.516347
vt 0.875000 0.516347
vt 0.613590 0.530091
vt 0.875000 0.530091
vt 0.602179 0.530091
vt 0.875000 0.530091
vt 0.602179 0.543836
vt 0.875000 0.543836
vt 0.590769 0.543836
vt 0.875000 0.543836
vt 0.590769 0.557580
vt 0.875000 0.557580
vt 0.579359 0.557580
vt 0.875000 0.557580
vt 0.579359 0.571324
vt 0.875000 0.571324
vt 0.567948 0.571324
vt 0.567948 0.585068
vt 0.875000 0.585068
vt 0.556538 0.585068
vt 0.875000 0.585068
vt 0.556538 0.598813
vt 0.875000 0.598813
vt 0.545128 0.598813
vt 0.875000 0.598813
vt 0.545128 0.612557
vt 0.875000 0.612557
vt 0.533717 0.612557
vt 0.875000 0.612557
vt 0.533717 0.626301
vt 0.875000 0.626301
vt 0.522307 0.647307
vt 0.625000 1.000000
vt 0.501301 0.658717
vt 0.501301 1.000000
vt 0.487557 0.658717
vt 0.487557 1.000000
vt 0.487557 0.670127
vt 0.487557 1.000000
vt 0.473813 0.670127
vt 0.473813 1.000000
vt 0.473813 0.681538
vt 0.460068 0.681538
vt 0.460068 1.000000
vt 0.460068 0.692948
vt 0.460068 1.000000
vt 0.446324 0.692948
vt 0.446324 1.000000
vt 0.446324 0.704359
vt 0.446324 1.000000
vt 0.432580 0.704359
vt 0.432580 1.000000
vt 0.432580 0.715769
vt 0.432580 1.000000
vt 0.418836 0.715769
vt 0.418836 1.000000
vt 0.418836 0.727179
vt 0.405091 0.727179
vt 0.405091 1.000000
vt 0.405091 0.738590
vt 0.405091 1.000000
vt 0.391347 0.738590
vt 0.391347 1.000000
vt 0.391347 0.750000
vt 0.375000 0.750000
vt 0.375000 1.000000
vt 0.875000 0.500000
vt 0.625000 0.500000
vt 0.446324 0.068722
vt 0.570023 0.192420
vt 0.875000 0.750000
vt 0.391347 1.000000
vt 0.375000 0.000000
vt 0.391347 0.000000
vt 0.391347 0.013744
vt 0.405091 0.013744
vt 0.405091 0.027489
vt 0.625000 0.233653
vt 0.597511 0.219909
vt 0.611256 0.219909
vt 0.611256 0.233653
vt 0.418836 0.027489
vt 0.418835 0.041233
vt 0.432580 0.041233
vt 0.432580 0.054977
vt 0.446324 0.054977
vt 0.460068 0.068722
vt 0.460068 0.082466
vt 0.473813 0.082466
vt 0.473813 0.096210
vt 0.487557 0.096210
vt 0.487557 0.109954
vt 0.501301 0.109954
vt 0.501301 0.123699
vt 0.515046 0.123699
vt 0.515046 0.137443
vt 0.528790 0.137443
vt 0.528790 0.151187
vt 0.542534 0.151187
vt 0.542534 0.164932
vt 0.556279 0.164932
vt 0.556278 0.178676
vt 0.570023 0.178676
vt 0.583767 0.192420
vt 0.583767 0.206164
vt 0.597511 0.206164
s 0
usemtl Material.014
f 76/110/8 80/111/8 79/112/8
f 78/113/9 76/110/9 79/114/9
f 117/115/10 83/116/10 81/117/10
f 150/118/11 84/119/11 83/116/11
f 149/120/10 85/121/10 84/119/10
f 148/122/11 86/123/11 85/121/11
f 147/124/10 87/125/10 86/123/10
f 146/126/11 88/127/11 87/125/11
f 145/128/10 89/129/10 88/127/10
f 144/130/11 90/131/11 89/129/11
f 143/132/10 91/133/10 90/131/10
f 142/132/11 92/134/11 91/133/11
f 141/135/10 93/136/10 92/134/10
f 140/137/11 94/138/11 93/136/11
f 139/139/10 95/140/10 94/138/10
f 138/141/11 96/142/11 95/140/11
f 137/143/10 97/144/10 96/142/10
f 136/145/11 98/146/11 97/144/11
f 135/147/10 99/148/10 98/146/10
f 134/149/11 100/150/11 99/148/11
f 133/151/10 101/152/10 100/150/10
f 132/153/11 102/154/11 101/152/11
f 131/155/10 103/156/10 102/154/10
f 130/157/11 104/158/11 103/156/11
f 129/157/10 105/159/10 104/158/10
f 128/160/11 106/161/11 105/159/11
f 127/162/10 107/163/10 106/161/10
f 126/164/11 108/165/11 107/163/11
f 125/166/10 109/167/10 108/165/10
f 124/168/11 110/169/11 109/167/11
f 123/170/10 111/171/10 110/169/10
f 122/172/11 112/173/11 111/171/11
f 121/172/10 113/174/10 112/173/10
f 120/175/11 114/176/11 113/174/11
f 119/177/10 115/178/10 114/176/10
f 118/179/11 82/180/11 115/178/11
f 99/148/12 103/156/12 77/181/12
f 82/180/10 80/182/10 77/181/10
f 78/183/11 81/117/11 75/184/11
f 126/185/13 144/186/13 79/114/13
f 76/110/8 77/181/8 80/111/8
f 78/113/9 75/184/9 76/110/9
f 117/115/10 150/118/10 83/116/10
f 150/118/11 149/120/11 84/119/11
f 149/120/10 148/122/10 85/121/10
f 148/122/11 147/124/11 86/123/11
f 147/124/10 146/126/10 87/125/10
f 146/126/11 145/128/11 88/127/11
f 145/128/10 144/130/10 89/129/10
f 144/130/11 143/132/11 90/131/11
f 143/132/10 142/132/10 91/133/10
f 142/132/11 141/135/11 92/134/11
f 141/135/10 140/137/10 93/136/10
f 140/137/11 139/139/11 94/138/11
f 139/139/10 138/141/10 95/140/10
f 138/141/11 137/143/11 96/142/11
f 137/143/10 136/145/10 97/144/10
f 136/145/11 135/147/11 98/146/11
f 135/147/10 134/187/10 99/148/10
f 134/149/11 133/151/11 100/150/11
f 133/151/10 132/153/10 101/152/10
f 132/153/11 131/155/11 102/154/11
f 131/155/10 130/157/10 103/156/10
f 130/157/11 129/157/11 104/158/11
f 129/157/10 128/160/10 105/159/10
f 128/160/11 127/162/11 106/161/11
f 127/162/10 126/164/10 107/163/10
f 126/164/11 125/166/11 108/165/11
f 125/166/10 124/168/10 109/167/10
f 124/168/11 123/170/11 110/169/11
f 123/170/10 122/172/10 111/171/10
f 122/172/11 121/172/11 112/173/11
f 121/172/10 120/175/10 113/174/10
f 120/175/11 119/177/11 114/176/11
f 119/177/10 118/179/10 115/178/10
f 118/179/11 116/188/11 82/180/11
f 77/181/12 76/110/12 75/184/12
f 75/184/12 81/117/12 83/116/12
f 83/116/12 84/119/12 85/121/12
f 85/121/12 86/123/12 87/125/12
f 87/125/12 88/127/12 89/129/12
f 89/129/12 90/131/12 91/133/12
f 91/133/12 92/134/12 93/136/12
f 93/136/12 94/138/12 95/140/12
f 95/140/12 96/142/12 97/144/12
f 97/144/12 98/146/12 99/148/12
f 99/148/12 100/150/12 101/152/12
f 101/152/12 102/154/12 103/156/12
f 103/156/12 104/158/12 105/159/12
f 105/159/12 106/161/12 107/163/12
f 107/163/12 108/165/12 109/167/12
f 109/167/12 110/169/12 111/171/12
f 111/171/12 112/173/12 113/174/12
f 113/174/12 114/176/12 115/178/12
f 115/178/12 82/180/12 77/181/12
f 77/181/12 75/184/12 83/116/12
f 83/116/11 85/121/11 87/125/11
f 77/181/12 83/116/12 87/125/12
f 113/174/12 115/178/12 77/181/12
f 107/163/12 109/167/12 111/171/12
f 111/171/12 113/174/12 77/181/12
f 77/181/12 87/125/12 89/129/12
f 91/133/12 93/136/12 95/140/12
f 77/181/12 89/129/12 91/133/12
f 107/163/12 111/171/12 77/181/12
f 103/156/12 105/159/12 107/163/12
f 99/148/12 101/152/12 103/156/12
f 95/140/12 97/144/12 99/148/12
f 77/181/12 91/133/12 95/140/12
f 103/156/12 107/163/12 77/181/12
f 77/181/12 95/140/12 99/148/12
f 82/180/10 116/188/10 80/182/10
f 78/183/11 117/115/11 81/117/11
f 79/114/13 80/189/13 116/190/13
f 118/191/13 119/192/13 120/193/13
f 79/114/13 116/190/13 118/191/13
f 117/194/13 78/113/13 79/114/13
f 148/195/13 149/196/13 150/197/13
f 150/197/13 117/194/13 79/114/13
f 79/114/13 118/191/13 120/193/13
f 120/193/13 121/198/13 122/199/13
f 122/199/13 123/200/13 124/201/13
f 124/201/13 125/202/13 126/185/13
f 126/185/13 127/203/13 128/204/13
f 128/204/13 129/205/13 130/206/13
f 130/206/13 131/207/13 132/208/13
f 132/208/13 133/209/13 134/210/13
f 134/210/13 135/211/13 136/212/13
f 136/212/13 137/213/13 138/214/13
f 138/214/13 139/215/13 140/216/13
f 140/216/13 141/217/13 142/218/13
f 142/218/13 143/219/13 144/186/13
f 144/186/13 145/220/13 146/221/13
f 146/221/13 147/222/13 148/195/13
f 148/195/13 150/197/13 79/114/13
f 79/114/13 120/193/13 122/199/13
f 122/199/13 124/201/13 126/185/13
f 126/185/13 128/204/13 130/206/13
f 130/206/13 132/208/13 134/210/13
f 134/210/13 136/212/13 138/214/13
f 138/214/13 140/216/13 142/218/13
f 138/214/12 142/218/12 144/186/12
f 126/185/13 130/206/13 134/210/13
f 134/210/13 138/214/13 144/186/13
f 146/221/13 148/195/13 79/114/13
f 126/185/13 134/210/13 144/186/13
f 144/186/13 146/221/13 79/114/13
f 79/114/13 122/199/13 126/185/13
