# Blender 4.5.3 LTS
# www.blender.org
mtllib house_2ndFloorCR_floor.mtl
g CR_Floor_Mesh
v -28.200001 8.200001 -26.000000
v -28.200001 8.000000 -26.000000
v -28.200001 8.200001 -14.000000
v -28.200001 8.000000 -14.000000
v -35.799999 8.200001 -26.000000
v -35.799999 8.000000 -26.000000
v -35.799999 8.200001 -14.000000
v -35.799999 8.000000 -14.000000
v -32.000000 8.100000 -14.000000
vn -0.0000 1.0000 -0.0000
vn -0.0000 -0.0000 1.0000
vn -1.0000 -0.0000 -0.0000
vn -0.0000 -1.0000 -0.0000
vn 1.0000 -0.0000 -0.0000
vn -0.0000 -0.0000 -1.0000
vt 0.875000 0.500000
vt 0.625000 0.750000
vt 0.625000 0.500000
vt 0.375000 0.750000
vt 0.500000 0.875000
vt 0.625000 1.000000
vt 0.375000 1.000000
vt 0.625000 0.000000
vt 0.375000 0.250000
vt 0.375000 0.000000
vt 0.375000 0.500000
vt 0.125000 0.750000
vt 0.125000 0.500000
vt 0.625000 0.250000
vt 0.875000 0.750000
s 0
usemtl Material.096
f 5/1/1 3/2/1 1/3/1
f 4/4/2 3/2/2 9/5/2
f 7/6/2 8/7/2 9/5/2
f 7/8/3 6/9/3 8/10/3
f 2/11/4 8/12/4 6/13/4
f 1/3/5 4/4/5 2/11/5
f 5/14/6 2/11/6 6/9/6
f 5/1/1 7/15/1 3/2/1
f 3/2/2 7/6/2 9/5/2
f 9/5/2 8/7/2 4/4/2
f 7/8/3 5/14/3 6/9/3
f 2/11/4 4/4/4 8/12/4
f 1/3/5 3/2/5 4/4/5
f 5/14/6 1/3/6 2/11/6
