# Blender 4.5.3 LTS
# www.blender.org
mtllib house_basement_wall.mtl
g Cube.049_Mesh
v -31.799999 0.000000 -22.000000
v -31.799999 -6.000000 -22.000000
v -31.799999 0.000000 10.000000
v -31.799999 -6.000000 10.000000
v -32.000000 0.000000 -22.000000
v -32.000000 -6.000000 -22.000000
v -32.000000 0.000000 10.000000
v -32.000000 -6.000000 10.000000
vn -0.0000 1.0000 -0.0000
vn -0.0000 -0.0000 1.0000
vn -1.0000 -0.0000 -0.0000
vn -0.0000 -1.0000 -0.0000
vn 1.0000 -0.0000 -0.0000
vn -0.0000 -0.0000 -1.0000
vt 0.875000 0.500000
vt 0.625000 0.750000
vt 0.625000 0.500000
vt 0.375000 1.000000
vt 0.375000 0.750000
vt 0.625000 0.000000
vt 0.375000 0.250000
vt 0.375000 0.000000
vt 0.375000 0.500000
vt 0.125000 0.750000
vt 0.125000 0.500000
vt 0.625000 0.250000
vt 0.875000 0.750000
vt 0.625000 1.000000
s 0
usemtl Material.073
f 5/1/1 3/2/1 1/3/1
f 3/2/2 8/4/2 4/5/2
f 7/6/3 6/7/3 8/8/3
f 2/9/4 8/10/4 6/11/4
f 1/3/5 4/5/5 2/9/5
f 5/12/6 2/9/6 6/7/6
f 5/1/1 7/13/1 3/2/1
f 3/2/2 7/14/2 8/4/2
f 7/6/3 5/12/3 6/7/3
f 2/9/4 4/5/4 8/10/4
f 1/3/5 3/2/5 4/5/5
f 5/12/6 1/3/6 2/9/6
g Cube.050_Mesh
v -4.000000 0.000000 -22.000000
v -4.000000 -6.000000 -22.000000
v -4.000000 0.000000 -21.799999
v -4.000000 -6.000000 -21.799999
v -32.000000 0.000000 -22.000000
v -32.000000 -6.000000 -22.000000
v -32.000000 0.000000 -21.799999
v -32.000000 -6.000000 -21.799999
vn -0.0000 1.0000 -0.0000
vn -0.0000 -0.0000 1.0000
vn -1.0000 -0.0000 -0.0000
vn -0.0000 -1.0000 -0.0000
vn 1.0000 -0.0000 -0.0000
vn -0.0000 -0.0000 -1.0000
vt 0.875000 0.500000
vt 0.625000 0.750000
vt 0.625000 0.500000
vt 0.375000 1.000000
vt 0.375000 0.750000
vt 0.625000 0.000000
vt 0.375000 0.250000
vt 0.375000 0.000000
vt 0.375000 0.500000
vt 0.125000 0.750000
vt 0.125000 0.500000
vt 0.625000 0.250000
vt 0.875000 0.750000
vt 0.625000 1.000000
s 0
usemtl Material.074
f 13/15/7 11/16/7 9/17/7
f 11/16/8 16/18/8 12/19/8
f 15/20/9 14/21/9 16/22/9
f 10/23/10 16/24/10 14/25/10
f 9/17/11 12/19/11 10/23/11
f 13/26/12 10/23/12 14/21/12
f 13/15/7 15/27/7 11/16/7
f 11/16/8 15/28/8 16/18/8
f 15/20/9 13/26/9 14/21/9
f 10/23/10 12/19/10 16/24/10
f 9/17/11 11/16/11 12/19/11
f 13/26/12 9/17/12 10/23/12
g Cube.051_Mesh
v -19.799999 0.000000 10.000000
v -19.799999 -6.000000 10.000000
v -19.799999 0.000000 16.000000
v -19.799999 -6.000000 16.000000
v -20.000000 0.000000 10.000000
v -20.000000 -6.000000 10.000000
v -20.000000 0.000000 16.000000
v -20.000000 -6.000000 16.000000
vn -0.0000 1.0000 -0.0000
vn -0.0000 -0.0000 1.0000
vn -1.0000 -0.0000 -0.0000
vn -0.0000 -1.0000 -0.0000
vn 1.0000 -0.0000 -0.0000
vn -0.0000 -0.0000 -1.0000
vt 0.875000 0.500000
vt 0.625000 0.750000
vt 0.625000 0.500000
vt 0.375000 1.000000
vt 0.375000 0.750000
vt 0.625000 0.000000
vt 0.375000 0.250000
vt 0.375000 0.000000
vt 0.375000 0.500000
vt 0.125000 0.750000
vt 0.125000 0.500000
vt 0.625000 0.250000
vt 0.875000 0.750000
vt 0.625000 1.000000
s 0
usemtl Material.075
f 21/29/13 19/30/13 17/31/13
f 19/30/14 24/32/14 20/33/14
f 23/34/15 22/35/15 24/36/15
f 18/37/16 24/38/16 22/39/16
f 17/31/17 20/33/17 18/37/17
f 21/40/18 18/37/18 22/35/18
f 21/29/13 23/41/13 19/30/13
f 19/30/14 23/42/14 24/32/14
f 23/34/15 21/40/15 22/35/15
f 18/37/16 20/33/16 24/38/16
f 17/31/17 19/30/17 20/33/17
f 21/40/18 17/31/18 18/37/18
g Cube.052_Mesh
v -19.799999 0.000000 -22.000000
v -19.799999 -6.000000 -22.000000
v -19.799999 0.000000 10.000000
v -19.799999 -6.000000 10.000000
v -20.200001 0.000000 -22.000000
v -20.200001 -6.000000 -22.000000
v -20.200001 0.000000 10.000000
v -20.200001 -6.000000 10.000000
v -20.200001 -6.000000 -8.700000
v -20.200001 -6.000000 -11.300000
v -20.200001 -1.300000 -8.700000
v -20.200001 -1.300000 -11.300000
v -19.799999 -6.000000 -8.700000
v -19.799999 -6.000000 -11.300000
v -19.799999 -1.300000 -8.700000
v -19.799999 -1.300000 -11.300000
vn -0.0000 1.0000 -0.0000
vn -0.0000 -0.0000 1.0000
vn -1.0000 -0.0000 -0.0000
vn -0.0000 -1.0000 -0.0000
vn 1.0000 -0.0000 -0.0000
vn -0.0000 -0.0000 -1.0000
vt 0.875000 0.500000
vt 0.625000 0.750000
vt 0.625000 0.500000
vt 0.375000 1.000000
vt 0.375000 0.750000
vt 0.625000 0.000000
vt 0.625000 0.250000
vt 0.570833 0.146094
vt 0.125000 0.750000
vt 0.375000 0.603906
vt 0.125000 0.500000
vt 0.375000 0.583594
vt 0.125000 0.583594
vt 0.570833 0.583594
vt 0.375000 0.500000
vt 0.375000 0.250000
vt 0.691301 0.500000
vt 0.741301 0.750000
vt 0.741301 0.500000
vt 0.625000 0.816301
vt 0.380208 0.866301
vt 0.625000 0.866301
vt 0.625000 0.383699
vt 0.380208 0.433699
vt 0.625000 0.433699
vt 0.875000 0.750000
vt 0.625000 1.000000
vt 0.375000 0.146094
vt 0.375000 0.000000
vt 0.375000 0.166406
vt 0.570833 0.166406
vt 0.125000 0.603906
vt 0.570833 0.603906
vt 0.691301 0.750000
vt 0.380208 0.816301
vt 0.380208 0.383699
s 0
usemtl Material.076
f 29/43/19 27/44/19 25/45/19
f 27/44/20 32/46/20 28/47/20
f 31/48/21 29/49/21 35/50/21
f 32/51/22 37/52/22 28/47/22
f 30/53/22 38/54/22 34/55/22
f 25/45/23 27/44/23 40/56/23
f 29/49/24 26/57/24 30/58/24
f 40/59/22 35/60/22 36/61/22
f 39/62/24 33/63/24 35/64/24
f 36/65/20 38/66/20 40/67/20
f 29/43/19 31/68/19 27/44/19
f 27/44/20 31/69/20 32/46/20
f 35/50/21 33/70/21 32/71/21
f 29/49/21 30/58/21 34/72/21
f 29/49/21 34/72/21 36/73/21
f 35/50/21 32/71/21 31/48/21
f 29/49/21 36/73/21 35/50/21
f 32/51/22 33/74/22 37/52/22
f 30/53/22 26/57/22 38/54/22
f 38/54/23 26/57/23 25/45/23
f 27/44/23 28/47/23 37/52/23
f 27/44/23 37/52/23 39/75/23
f 40/56/23 38/54/23 25/45/23
f 27/44/23 39/75/23 40/56/23
f 29/49/24 25/45/24 26/57/24
f 40/59/22 39/76/22 35/60/22
f 39/62/24 37/77/24 33/63/24
f 36/65/20 34/78/20 38/66/20
g Cube.053_Mesh
v -4.000000 0.000000 -8.200000
v -26.000000 0.000000 -8.200000
v -26.000000 -6.000000 -8.200000
v -4.000000 -6.000000 -8.200000
v -26.000000 0.000000 -7.800000
v -4.000000 0.000000 -7.800000
v -26.000000 -6.000000 -7.800000
v -4.000000 -6.000000 -7.800000
v -30.000000 0.000000 -8.200000
v -32.000000 0.000000 -8.200000
v -32.000000 -6.000000 -8.200000
v -30.000000 0.000000 -7.800000
v -32.000000 0.000000 -7.800000
v -32.000000 -6.000000 -7.800000
v -26.900002 -6.000000 -7.800000
v -26.900002 -1.900000 -7.800000
v -26.900002 -6.000000 -8.200000
v -26.900002 -1.900000 -8.200000
v -27.900002 -1.900000 -8.200000
v -26.900002 -6.000000 -7.860000
v -26.000000 -1.101449 -8.200000
v -26.000000 -0.835165 -8.200000
v -26.000000 -0.331878 -8.200000
v -26.000000 -0.302789 -8.200000
v -26.551022 -6.000000 -7.836735
v -27.520000 -1.520000 -8.200000
v -26.281483 -0.281481 -8.200000
v -26.690910 -0.690909 -8.200000
v -26.306454 -0.306452 -8.200000
v -26.863636 -0.863636 -8.200000
v -4.700001 -6.000000 -7.800000
v -7.300002 -6.000000 -7.800000
v -4.700001 -1.300000 -7.800000
v -7.300002 -1.300000 -7.800000
v -4.700001 -6.000000 -8.200000
v -7.300002 -6.000000 -8.200000
v -4.700001 -1.300000 -8.200000
v -7.300002 -1.300000 -8.200000
v -23.299999 -6.000000 -7.800000
v -20.700001 -6.000000 -7.800000
v -23.299999 -1.300000 -7.800000
v -20.700001 -1.300000 -7.800000
v -20.700001 -6.000000 -8.200000
v -23.299999 -6.000000 -8.200000
v -23.299999 -1.300000 -8.200000
v -20.700001 -1.300000 -8.200000
v -28.700001 -1.300000 -7.800000
v -30.000000 -1.300000 -7.800000
v -28.700001 -1.900000 -7.800000
v -30.000000 -1.300000 -8.200000
v -28.700001 -1.900000 -8.200000
v -28.700001 -1.300000 -8.200000
v -31.299999 -6.000000 -7.800000
v -31.299999 -1.300000 -7.800000
v -28.700001 -6.000000 -7.800000
v -31.299999 -6.000000 -8.200000
v -28.700001 -6.000000 -8.200000
v -31.299999 -1.300000 -8.200000
vn -0.0000 1.0000 -0.0000
vn -0.0000 -0.0000 1.0000
vn -0.0000 -1.0000 -0.0000
vn 1.0000 -0.0000 -0.0000
vn -0.0000 -0.0000 -1.0000
vn -1.0000 -0.0000 -0.0000
vt 0.625000 0.750000
vt 0.836538 0.500000
vt 0.836538 0.750000
vt 0.875000 0.500000
vt 0.625000 0.500000
vt 0.570833 0.910577
vt 0.570833 0.781731
vt 0.545833 0.970192
vt 0.625000 0.961538
vt 0.570833 0.987500
vt 0.375000 0.750000
vt 0.368269 0.500000
vt 0.375000 0.500000
vt 0.343269 0.500000
vt 0.214423 0.750000
vt 0.214423 0.500000
vt 0.163462 0.750000
vt 0.189423 0.500000
vt 0.189423 0.750000
vt 0.154808 0.712500
vt 0.158163 0.727041
vt 0.154808 0.750000
vt 0.154808 0.500000
vt 0.612384 0.288462
vt 0.625000 0.288462
vt 0.570833 0.493269
vt 0.589015 0.280157
vt 0.545833 0.279808
vt 0.561667 0.273846
vt 0.545833 0.270192
vt 0.612231 0.285515
vt 0.611172 0.288462
vt 0.590201 0.288461
vt 0.596212 0.281818
vt 0.791667 0.750000
vt 0.791667 0.500000
vt 0.625000 1.000000
vt 0.375000 0.970833
vt 0.570833 0.970833
vt 0.545833 0.787500
vt 0.375000 0.862500
vt 0.375000 0.787500
vt 0.625000 0.000000
vt 0.375000 0.250000
vt 0.375000 0.000000
vt 0.125000 0.500000
vt 0.154167 0.750000
vt 0.125000 0.750000
vt 0.337500 0.500000
vt 0.337500 0.712500
vt 0.262500 0.750000
vt 0.545833 0.420833
vt 0.375000 0.462500
vt 0.375000 0.387500
vt 0.625000 0.250000
vt 0.570833 0.333333
vt 0.570833 0.279167
vt 0.875000 0.650000
vt 0.625000 0.600000
vt 0.625000 0.650000
vt 0.625000 0.100000
vt 0.380208 0.150000
vt 0.625000 0.150000
vt 0.380208 0.650000
vt 0.380208 0.600000
vt 0.380208 0.100000
vt 0.750000 0.650000
vt 0.875000 0.600000
vt 0.750000 0.600000
vt 0.593750 0.650000
vt 0.593750 0.600000
vt 0.875000 0.750000
vt 0.570833 0.756731
vt 0.375000 0.756731
vt 0.375000 0.961538
vt 0.375000 0.935577
vt 0.570833 0.935577
vt 0.375000 0.910577
vt 0.375000 0.781731
vt 0.375000 0.970192
vt 0.570833 1.000000
vt 0.545833 0.987500
vt 0.368269 0.750000
vt 0.343269 0.750000
vt 0.163462 0.500000
vt 0.570833 0.314423
vt 0.375000 0.314423
vt 0.375000 0.288462
vt 0.579106 0.288462
vt 0.375000 0.468269
vt 0.375000 0.339423
vt 0.570833 0.339423
vt 0.570833 0.468269
vt 0.375000 0.493269
vt 0.613272 0.285755
vt 0.570833 0.250000
vt 0.545833 0.262500
vt 0.570833 0.262500
vt 0.375000 0.279808
vt 0.570833 0.916667
vt 0.625000 0.916667
vt 0.375000 1.000000
vt 0.545833 0.862500
vt 0.154167 0.500000
vt 0.262500 0.500000
vt 0.337500 0.750000
vt 0.545833 0.387500
vt 0.545833 0.462500
vt 0.375000 0.279167
vt 0.625000 0.333333
s 0
usemtl Material.077
f 46/79/25 42/80/25 45/81/25
f 49/82/25 45/79/25 42/83/25
f 46/79/26 82/84/26 74/85/26
f 56/86/26 45/87/26 87/88/26
f 48/89/27 75/90/27 44/91/27
f 76/92/27 80/93/27 83/94/27
f 47/95/27 84/96/27 79/97/27
f 60/98/27 65/99/27 55/100/27
f 65/99/27 57/101/27 47/95/27
f 41/83/28 48/89/28 44/91/28
f 64/102/29 42/103/29 77/104/29
f 70/105/29 58/106/29 66/107/29
f 59/108/29 66/107/29 58/106/29
f 69/109/29 64/102/29 63/110/29
f 62/111/29 70/105/29 68/112/29
f 50/82/25 52/113/25 49/114/25
f 53/115/26 93/116/26 94/117/26
f 56/118/26 95/119/26 55/120/26
f 53/121/30 51/122/30 54/123/30
f 51/124/27 93/125/27 54/126/27
f 57/127/27 60/128/27 95/129/27
f 59/130/29 57/131/29 97/132/29
f 50/133/29 90/134/29 98/135/29
f 74/136/27 77/137/27 73/138/27
f 74/139/28 76/140/28 78/141/28
f 71/142/30 77/137/30 75/143/30
f 81/136/27 86/137/27 82/138/27
f 79/144/28 85/141/28 81/139/28
f 86/137/30 80/142/30 82/138/30
f 88/145/27 98/146/27 90/147/27
f 94/139/28 96/140/28 98/141/28
f 89/148/30 91/149/30 95/142/30
f 46/79/25 41/83/25 42/80/25
f 49/82/25 52/150/25 45/79/25
f 73/151/26 71/152/26 48/89/26
f 45/87/26 47/153/26 79/154/26
f 45/87/26 79/154/26 81/155/26
f 73/151/26 48/89/26 46/79/26
f 80/156/26 72/157/26 74/85/26
f 74/85/26 73/151/26 46/79/26
f 46/79/26 45/87/26 81/155/26
f 82/84/26 80/156/26 74/85/26
f 46/79/26 81/155/26 82/84/26
f 56/86/26 55/158/26 47/153/26
f 45/87/26 52/115/26 88/159/26
f 87/88/26 89/160/26 56/86/26
f 45/87/26 88/159/26 87/88/26
f 56/86/26 47/153/26 45/87/26
f 48/89/27 71/161/27 75/90/27
f 76/92/27 72/162/27 80/93/27
f 47/95/27 43/163/27 84/96/27
f 65/99/27 60/98/27 57/101/27
f 57/101/27 43/163/27 47/95/27
f 47/95/27 55/100/27 65/99/27
f 41/83/28 46/79/28 48/89/28
f 85/164/29 84/165/29 43/166/29
f 85/164/29 43/166/29 61/167/29
f 76/168/29 83/169/29 86/170/29
f 86/170/29 85/164/29 61/167/29
f 86/170/29 61/167/29 62/111/29
f 78/171/29 76/168/29 86/170/29
f 44/91/29 75/172/29 77/104/29
f 78/171/29 86/170/29 62/111/29
f 41/83/29 44/91/29 77/104/29
f 77/104/29 78/171/29 62/111/29
f 77/104/29 62/111/29 63/110/29
f 42/103/29 41/83/29 77/104/29
f 77/104/29 63/110/29 64/102/29
f 69/109/29 63/110/29 62/111/29
f 69/109/29 62/111/29 68/112/29
f 42/103/29 64/102/29 67/173/29
f 69/109/26 68/112/26 70/105/26
f 42/103/29 67/173/29 69/109/29
f 90/174/29 49/133/29 42/103/29
f 59/108/29 91/175/29 92/176/29
f 92/176/29 90/174/29 42/103/29
f 92/176/29 42/103/29 69/109/29
f 66/107/29 59/108/29 92/176/29
f 43/166/29 57/177/29 58/106/29
f 66/107/29 92/176/29 69/109/29
f 61/167/29 43/166/29 58/106/29
f 66/107/29 69/109/29 70/105/29
f 70/105/29 61/167/29 58/106/29
f 69/109/29 67/173/29 64/102/29
f 62/111/29 61/167/29 70/105/29
f 50/82/25 53/150/25 52/113/25
f 94/117/26 88/178/26 52/179/26
f 53/115/26 54/180/26 93/116/26
f 94/117/26 52/179/26 53/115/26
f 56/118/26 89/181/26 95/119/26
f 53/121/30 50/133/30 51/122/30
f 51/124/27 96/182/27 93/125/27
f 95/129/27 97/183/27 57/127/27
f 60/128/27 55/184/27 95/129/27
f 97/132/29 91/185/29 59/130/29
f 59/130/29 58/186/29 57/131/29
f 96/187/29 51/122/29 50/133/29
f 50/133/29 49/188/29 90/134/29
f 98/135/29 96/187/29 50/133/29
f 74/136/27 78/146/27 77/137/27
f 74/139/28 72/144/28 76/140/28
f 71/142/30 73/138/30 77/137/30
f 81/136/27 85/146/27 86/137/27
f 79/144/28 84/140/28 85/141/28
f 86/137/30 83/143/30 80/142/30
f 92/137/27 87/138/27 88/145/27
f 88/145/27 94/136/27 98/146/27
f 90/147/27 92/137/27 88/145/27
f 94/139/28 93/144/28 96/140/28
f 89/148/30 87/138/30 92/137/30
f 91/149/30 97/143/30 95/142/30
f 89/148/30 92/137/30 91/149/30
g Cube.054_Mesh
v -4.000000 0.000000 -22.000000
v -4.000000 -6.000000 -22.000000
v -4.000000 0.000000 16.000000
v -4.000000 -6.000000 16.000000
v -4.200000 0.000000 -22.000000
v -4.200000 -6.000000 -22.000000
v -4.200000 0.000000 16.000000
v -4.200000 -6.000000 16.000000
vn -0.0000 1.0000 -0.0000
vn -0.0000 -0.0000 1.0000
vn -1.0000 -0.0000 -0.0000
vn -0.0000 -1.0000 -0.0000
vn 1.0000 -0.0000 -0.0000
vn -0.0000 -0.0000 -1.0000
vt 0.875000 0.500000
vt 0.625000 0.750000
vt 0.625000 0.500000
vt 0.375000 1.000000
vt 0.375000 0.750000
vt 0.625000 0.000000
vt 0.375000 0.250000
vt 0.375000 0.000000
vt 0.375000 0.500000
vt 0.125000 0.750000
vt 0.125000 0.500000
vt 0.625000 0.250000
vt 0.875000 0.750000
vt 0.625000 1.000000
s 0
usemtl Material.078
f 103/189/31 101/190/31 99/191/31
f 101/190/32 106/192/32 102/193/32
f 105/194/33 104/195/33 106/196/33
f 100/197/34 106/198/34 104/199/34
f 99/191/35 102/193/35 100/197/35
f 103/200/36 100/197/36 104/195/36
f 103/189/31 105/201/31 101/190/31
f 101/190/32 105/202/32 106/192/32
f 105/194/33 103/200/33 104/195/33
f 100/197/34 102/193/34 106/198/34
f 99/191/35 101/190/35 102/193/35
f 103/200/36 99/191/36 100/197/36
g Cube.055_Mesh
v -20.000000 0.000000 9.799999
v -20.000000 -6.000000 9.799999
v -20.000000 0.000000 10.000000
v -20.000000 -6.000000 10.000000
v -32.000000 0.000000 9.799999
v -32.000000 -6.000000 9.799999
v -32.000000 0.000000 10.000000
v -32.000000 -6.000000 10.000000
vn -0.0000 1.0000 -0.0000
vn -0.0000 -0.0000 1.0000
vn -1.0000 -0.0000 -0.0000
vn -0.0000 -1.0000 -0.0000
vn 1.0000 -0.0000 -0.0000
vn -0.0000 -0.0000 -1.0000
vt 0.875000 0.500000
vt 0.625000 0.750000
vt 0.625000 0.500000
vt 0.375000 1.000000
vt 0.375000 0.750000
vt 0.625000 0.000000
vt 0.375000 0.250000
vt 0.375000 0.000000
vt 0.375000 0.500000
vt 0.125000 0.750000
vt 0.125000 0.500000
vt 0.625000 0.250000
vt 0.875000 0.750000
vt 0.625000 1.000000
s 0
usemtl Material.079
f 111/203/37 109/204/37 107/205/37
f 109/204/38 114/206/38 110/207/38
f 113/208/39 112/209/39 114/210/39
f 108/211/40 114/212/40 112/213/40
f 107/205/41 110/207/41 108/211/41
f 111/214/42 108/211/42 112/209/42
f 111/203/37 113/215/37 109/204/37
f 109/204/38 113/216/38 114/206/38
f 113/208/39 111/214/39 112/209/39
f 108/211/40 110/207/40 114/212/40
f 107/205/41 109/204/41 110/207/41
f 111/214/42 107/205/42 108/211/42
g Cube.056_Mesh
v -4.000000 0.000000 15.799999
v -4.000000 -6.000000 15.799999
v -4.000000 0.000000 16.000000
v -4.000000 -6.000000 16.000000
v -20.000000 0.000000 15.799999
v -20.000000 -6.000000 15.799999
v -20.000000 0.000000 16.000000
v -20.000000 -6.000000 16.000000
vn -0.0000 1.0000 -0.0000
vn -0.0000 -0.0000 1.0000
vn -1.0000 -0.0000 -0.0000
vn -0.0000 -1.0000 -0.0000
vn 1.0000 -0.0000 -0.0000
vn -0.0000 -0.0000 -1.0000
vt 0.875000 0.500000
vt 0.625000 0.750000
vt 0.625000 0.500000
vt 0.375000 1.000000
vt 0.375000 0.750000
vt 0.625000 0.000000
vt 0.375000 0.250000
vt 0.375000 0.000000
vt 0.375000 0.500000
vt 0.125000 0.750000
vt 0.125000 0.500000
vt 0.625000 0.250000
vt 0.875000 0.750000
vt 0.625000 1.000000
s 0
usemtl Material.080
f 119/217/43 117/218/43 115/219/43
f 117/218/44 122/220/44 118/221/44
f 121/222/45 120/223/45 122/224/45
f 116/225/46 122/226/46 120/227/46
f 115/219/47 118/221/47 116/225/47
f 119/228/48 116/225/48 120/223/48
f 119/217/43 121/229/43 117/218/43
f 117/218/44 121/230/44 122/220/44
f 121/222/45 119/228/45 120/223/45
f 116/225/46 118/221/46 122/226/46
f 115/219/47 117/218/47 118/221/47
f 119/228/48 115/219/48 116/225/48
