# Blender 4.5.3 LTS
# www.blender.org
mtllib house_1stFloor_floor.mtl
g Cube.001_Mesh
v 4.000000 2.000000 -26.000000
v 4.000000 0.000000 -26.000000
v 4.000000 2.000000 -8.000000
v 4.000000 0.000000 -8.000000
v -20.000000 2.000000 -26.000000
v -20.000000 0.000000 -26.000000
v -20.000000 2.000000 -8.000000
v -20.000000 0.000000 -8.000000
vn -0.0000 1.0000 -0.0000
vn -0.0000 -0.0000 1.0000
vn -1.0000 -0.0000 -0.0000
vn -0.0000 -1.0000 -0.0000
vn 1.0000 -0.0000 -0.0000
vn -0.0000 -0.0000 -1.0000
vt 0.875000 0.500000
vt 0.625000 0.750000
vt 0.625000 0.500000
vt 0.375000 1.000000
vt 0.375000 0.750000
vt 0.625000 0.000000
vt 0.375000 0.250000
vt 0.375000 0.000000
vt 0.375000 0.500000
vt 0.125000 0.750000
vt 0.125000 0.500000
vt 0.625000 0.250000
vt 0.875000 0.750000
vt 0.625000 1.000000
s 0
usemtl Material.001
f 5/1/1 3/2/1 1/3/1
f 3/2/2 8/4/2 4/5/2
f 7/6/3 6/7/3 8/8/3
f 2/9/4 8/10/4 6/11/4
f 1/3/5 4/5/5 2/9/5
f 5/12/6 2/9/6 6/7/6
f 5/1/1 7/13/1 3/2/1
f 3/2/2 7/14/2 8/4/2
f 7/6/3 5/12/3 6/7/3
f 2/9/4 4/5/4 8/10/4
f 1/3/5 3/2/5 4/5/5
f 5/12/6 1/3/6 2/9/6
g Cube.006_Mesh
v 4.000000 2.000000 -8.000000
v 4.000000 0.000000 -8.000000
v 4.000000 2.000000 8.000000
v 4.000000 0.000000 8.000000
v -4.000000 2.000000 -8.000000
v -4.000000 0.000000 -8.000000
v -4.000000 2.000000 8.000000
v -4.000000 0.000000 8.000000
vn -0.0000 1.0000 -0.0000
vn -0.0000 -0.0000 1.0000
vn -1.0000 -0.0000 -0.0000
vn -0.0000 -1.0000 -0.0000
vn 1.0000 -0.0000 -0.0000
vn -0.0000 -0.0000 -1.0000
vt 0.875000 0.500000
vt 0.625000 0.750000
vt 0.625000 0.500000
vt 0.375000 1.000000
vt 0.375000 0.750000
vt 0.625000 0.000000
vt 0.375000 0.250000
vt 0.375000 0.000000
vt 0.375000 0.500000
vt 0.125000 0.750000
vt 0.125000 0.500000
vt 0.625000 0.250000
vt 0.875000 0.750000
vt 0.625000 1.000000
s 0
usemtl Material.007
f 13/15/7 11/16/7 9/17/7
f 11/16/8 16/18/8 12/19/8
f 15/20/9 14/21/9 16/22/9
f 10/23/10 16/24/10 14/25/10
f 9/17/11 12/19/11 10/23/11
f 13/26/12 10/23/12 14/21/12
f 13/15/7 15/27/7 11/16/7
f 11/16/8 15/28/8 16/18/8
f 15/20/9 13/26/9 14/21/9
f 10/23/10 12/19/10 16/24/10
f 9/17/11 11/16/11 12/19/11
f 13/26/12 9/17/12 10/23/12
g Cube.007_Mesh
v -20.000000 2.000000 -26.000000
v -20.000000 0.000000 -26.000000
v -20.000000 2.000000 8.000000
v -20.000000 0.000000 8.000000
v -36.000000 2.000000 -26.000000
v -36.000000 0.000000 -26.000000
v -36.000000 2.000000 8.000000
v -36.000000 0.000000 8.000000
vn -0.0000 1.0000 -0.0000
vn -0.0000 -0.0000 1.0000
vn -1.0000 -0.0000 -0.0000
vn -0.0000 -1.0000 -0.0000
vn 1.0000 -0.0000 -0.0000
vn -0.0000 -0.0000 -1.0000
vt 0.875000 0.500000
vt 0.625000 0.750000
vt 0.625000 0.500000
vt 0.375000 1.000000
vt 0.375000 0.750000
vt 0.625000 0.000000
vt 0.375000 0.250000
vt 0.375000 0.000000
vt 0.375000 0.500000
vt 0.125000 0.750000
vt 0.125000 0.500000
vt 0.625000 0.250000
vt 0.875000 0.750000
vt 0.625000 1.000000
s 0
usemtl Material.008
f 21/29/13 19/30/13 17/31/13
f 19/30/14 24/32/14 20/33/14
f 23/34/15 22/35/15 24/36/15
f 18/37/16 24/38/16 22/39/16
f 17/31/17 20/33/17 18/37/17
f 21/40/18 18/37/18 22/35/18
f 21/29/13 23/41/13 19/30/13
f 19/30/14 23/42/14 24/32/14
f 23/34/15 21/40/15 22/35/15
f 18/37/16 20/33/16 24/38/16
f 17/31/17 19/30/17 20/33/17
f 21/40/18 17/31/18 18/37/18
g Cube.058_Mesh
v -4.000000 2.000000 -8.000000
v -4.000000 0.000000 -8.000000
v -4.000000 2.000000 8.000000
v -4.000000 0.000000 8.000000
v -20.000000 2.000000 -8.000000
v -20.000000 0.000000 -8.000000
v -20.000000 2.000000 8.000000
v -20.000000 0.000000 8.000000
v -15.799999 2.000000 -0.200000
v -19.799999 2.000000 -0.200000
v -19.799999 2.000000 7.800000
v -15.799999 2.000000 7.800000
v -19.799999 0.000000 7.800000
v -19.799999 0.000000 -0.200000
v -15.799999 0.000000 -0.200000
v -15.799999 0.000000 7.800000
vn -0.0000 1.0000 -0.0000
vn -0.0000 -0.0000 1.0000
vn -1.0000 -0.0000 -0.0000
vn -0.0000 -1.0000 -0.0000
vn 1.0000 -0.0000 -0.0000
vn -0.0000 -0.0000 -1.0000
vt 0.875000 0.750000
vt 0.871875 0.621875
vt 0.875000 0.500000
vt 0.625000 0.750000
vt 0.809375 0.621875
vt 0.809375 0.746875
vt 0.375000 1.000000
vt 0.375000 0.750000
vt 0.625000 0.000000
vt 0.375000 0.250000
vt 0.375000 0.000000
vt 0.125000 0.750000
vt 0.128125 0.621875
vt 0.128125 0.746875
vt 0.375000 0.500000
vt 0.190625 0.621875
vt 0.625000 0.500000
vt 0.625000 0.250000
vt 0.543310 0.750000
vt 0.459977 1.000000
vt 0.543310 1.000000
vt 0.543310 0.250000
vt 0.459977 0.000000
vt 0.459977 0.250000
vt 0.543310 0.500000
vt 0.459977 0.750000
vt 0.459977 0.500000
vt 0.871875 0.746875
vt 0.625000 1.000000
vt 0.125000 0.500000
vt 0.190625 0.746875
vt 0.543310 0.000000
s 0
usemtl Material.083
f 31/43/19 34/44/19 29/45/19
f 27/46/19 33/47/19 36/48/19
f 27/46/20 32/49/20 28/50/20
f 31/51/21 30/52/21 32/53/21
f 32/54/22 38/55/22 37/56/22
f 26/57/22 28/50/22 39/58/22
f 25/59/23 28/50/23 26/57/23
f 29/60/24 26/57/24 30/52/24
f 36/61/24 37/62/24 35/63/24
f 34/64/23 37/65/23 38/66/23
f 33/67/21 40/68/21 36/61/21
f 33/67/20 38/66/20 39/69/20
f 31/43/19 35/70/19 34/44/19
f 36/48/19 35/70/19 31/43/19
f 27/46/19 25/59/19 29/45/19
f 29/45/19 34/44/19 33/47/19
f 36/48/19 31/43/19 27/46/19
f 27/46/19 29/45/19 33/47/19
f 27/46/20 31/71/20 32/49/20
f 31/51/21 29/60/21 30/52/21
f 32/54/22 30/72/22 38/55/22
f 38/55/22 30/72/22 26/57/22
f 28/50/22 32/54/22 37/56/22
f 28/50/22 37/56/22 40/73/22
f 39/58/22 38/55/22 26/57/22
f 28/50/22 40/73/22 39/58/22
f 25/59/23 27/46/23 28/50/23
f 29/60/24 25/59/24 26/57/24
f 36/61/24 40/68/24 37/62/24
f 34/64/23 35/74/23 37/65/23
f 33/67/21 39/69/21 40/68/21
f 33/67/20 34/64/20 38/66/20
g Cube.027_Mesh
v -36.000000 2.000000 -20.000000
v -36.000000 -0.000000 -20.000000
v -36.000000 2.000000 -10.000000
v -36.000000 -0.000000 -10.000000
v -46.000000 2.000000 -20.000000
v -46.000000 -0.000000 -20.000000
v -46.000000 2.000000 -10.000000
v -46.000000 -0.000000 -10.000000
vn -0.0000 1.0000 -0.0000
vn -0.0000 -0.0000 1.0000
vn -1.0000 -0.0000 -0.0000
vn -0.0000 -1.0000 -0.0000
vn 1.0000 -0.0000 -0.0000
vn -0.0000 -0.0000 -1.0000
vt 0.875000 0.500000
vt 0.625000 0.750000
vt 0.625000 0.500000
vt 0.375000 1.000000
vt 0.375000 0.750000
vt 0.625000 0.000000
vt 0.375000 0.250000
vt 0.375000 0.000000
vt 0.375000 0.500000
vt 0.125000 0.750000
vt 0.125000 0.500000
vt 0.625000 0.250000
vt 0.875000 0.750000
vt 0.625000 1.000000
s 0
usemtl Material.046
f 45/75/25 43/76/25 41/77/25
f 43/76/26 48/78/26 44/79/26
f 47/80/27 46/81/27 48/82/27
f 42/83/28 48/84/28 46/85/28
f 41/77/29 44/79/29 42/83/29
f 45/86/30 42/83/30 46/81/30
f 45/75/25 47/87/25 43/76/25
f 43/76/26 47/88/26 48/78/26
f 47/80/27 45/86/27 46/81/27
f 42/83/28 44/79/28 48/84/28
f 41/77/29 43/76/29 44/79/29
f 45/86/30 41/77/30 42/83/30
g Cube.016_Mesh
v -36.000000 2.000000 -10.000000
v -36.000000 -0.000000 -10.000000
v -36.000000 2.000000 0.000000
v -36.000000 -0.000000 0.000000
v -46.000000 2.000000 -10.000000
v -46.000000 -0.000000 -10.000000
v -46.000000 2.000000 0.000000
v -46.000000 -0.000000 0.000000
vn -0.0000 1.0000 -0.0000
vn -0.0000 -0.0000 1.0000
vn -1.0000 -0.0000 -0.0000
vn -0.0000 -1.0000 -0.0000
vn 1.0000 -0.0000 -0.0000
vn -0.0000 -0.0000 -1.0000
vt 0.875000 0.500000
vt 0.625000 0.750000
vt 0.625000 0.500000
vt 0.375000 1.000000
vt 0.375000 0.750000
vt 0.625000 0.000000
vt 0.375000 0.250000
vt 0.375000 0.000000
vt 0.375000 0.500000
vt 0.125000 0.750000
vt 0.125000 0.500000
vt 0.625000 0.250000
vt 0.875000 0.750000
vt 0.625000 1.000000
s 0
usemtl Material.173
f 53/89/31 51/90/31 49/91/31
f 51/90/32 56/92/32 52/93/32
f 55/94/33 54/95/33 56/96/33
f 50/97/34 56/98/34 54/99/34
f 49/91/35 52/93/35 50/97/35
f 53/100/36 50/97/36 54/95/36
f 53/89/31 55/101/31 51/90/31
f 51/90/32 55/102/32 56/92/32
f 55/94/33 53/100/33 54/95/33
f 50/97/34 52/93/34 56/98/34
f 49/91/35 51/90/35 52/93/35
f 53/100/36 49/91/36 50/97/36
g Cube.101_Mesh
v -20.200001 2.000000 -33.900002
v -20.000000 2.000000 -34.000000
v -20.000000 0.000000 -34.000000
v -20.200001 1.800000 -33.900002
v -20.000000 2.000000 -26.000000
v -20.200001 2.000000 -26.100000
v -20.000000 0.000000 -26.000000
v -20.200001 1.800000 -26.100000
v -36.000000 2.000000 -34.000000
v -35.799999 2.000000 -33.900002
v -36.000000 0.000000 -34.000000
v -35.799999 1.800000 -33.900002
v -36.000000 2.000000 -26.000000
v -35.799999 2.000000 -26.100000
v -36.000000 0.000000 -26.000000
v -35.799999 1.800000 -26.100000
v -28.000000 1.000000 -26.000000
v -28.000000 1.900000 -26.100000
vn -0.0000 1.0000 -0.0000
vn -0.0000 -0.0000 1.0000
vn -1.0000 -0.0000 -0.0000
vn -0.0000 -1.0000 -0.0000
vn 1.0000 -0.0000 -0.0000
vn -0.0000 -0.0000 -1.0000
vt 0.875000 0.500000
vt 0.875000 0.750000
vt 0.871875 0.503125
vt 0.628125 0.746875
vt 0.625000 0.500000
vt 0.628125 0.503125
vt 0.500000 0.875000
vt 0.375000 0.750000
vt 0.625000 0.750000
vt 0.625000 1.000000
vt 0.375000 1.000000
vt 0.625000 0.000000
vt 0.375000 0.250000
vt 0.375000 0.000000
vt 0.375000 0.500000
vt 0.125000 0.750000
vt 0.125000 0.500000
vt 0.625000 0.250000
vt 0.871875 0.746875
s 0
usemtl Material.049
f 65/103/37 69/104/37 66/105/37
f 62/106/37 58/107/37 57/108/37
f 73/109/38 63/110/38 61/111/38
f 69/112/38 71/113/38 73/109/38
f 69/114/39 67/115/39 71/116/39
f 59/117/40 71/118/40 67/119/40
f 58/107/41 63/110/41 59/117/41
f 65/120/42 59/117/42 67/115/42
f 62/111/42 64/110/42 74/109/42
f 70/112/42 74/109/42 72/113/42
f 68/115/41 70/114/41 72/116/41
f 72/118/37 60/117/37 68/119/37
f 57/107/39 64/110/39 62/111/39
f 60/117/38 66/120/38 68/115/38
f 66/105/37 57/108/37 58/107/37
f 69/104/37 61/111/37 62/106/37
f 69/104/37 62/106/37 70/121/37
f 66/105/37 58/107/37 65/103/37
f 69/104/37 70/121/37 66/105/37
f 62/106/37 61/111/37 58/107/37
f 73/109/38 71/113/38 63/110/38
f 61/111/38 69/112/38 73/109/38
f 69/114/39 65/120/39 67/115/39
f 59/117/40 63/110/40 71/118/40
f 58/107/41 61/111/41 63/110/41
f 65/120/42 58/107/42 59/117/42
f 74/109/42 70/112/42 62/111/42
f 64/110/42 72/113/42 74/109/42
f 68/115/41 66/120/41 70/114/41
f 72/118/37 64/110/37 60/117/37
f 57/107/39 60/117/39 64/110/39
f 60/117/38 57/107/38 66/120/38
